<?xml version="1.0" standalone="no"?>
<!DOCTYPE svg PUBLIC "-//W3C//DTD SVG 20010904//EN"
 "http://www.w3.org/TR/2001/REC-SVG-20010904/DTD/svg10.dtd">
<svg version="1.0" xmlns="http://www.w3.org/2000/svg"
 width="240.000000pt" height="240.000000pt" viewBox="0 0 240.000000 240.000000"
 preserveAspectRatio="xMidYMid meet">
<metadata>
Created by potrace 1.14, written by Peter Selinger 2001-2017
</metadata>
<g transform="translate(0.000000,240.000000) scale(0.100000,-0.100000)"
fill="#000000" stroke="none">
<path d="M2 1203 l-2 -1203 434 0 c338 0 436 3 440 13 5 9 7 9 12 0 4 -10 73
-13 295 -13 l289 0 0 25 c0 14 5 25 10 25 6 0 10 -7 10 -15 0 -8 7 -15 15 -15
8 0 15 7 15 15 0 8 5 15 11 15 19 0 39 28 39 54 0 22 5 26 28 26 16 0 34 8 42
20 8 11 20 20 27 20 8 0 13 14 13 40 0 36 3 40 25 40 20 0 25 5 25 24 0 13 11
31 25 42 13 10 27 31 30 46 5 21 13 28 30 28 21 0 23 -4 24 -65 1 -51 -2 -65
-14 -65 -11 0 -15 -12 -15 -45 0 -36 -4 -45 -17 -45 -14 0 -14 -3 5 -20 31
-29 42 -25 42 15 0 19 5 35 10 35 6 0 10 38 10 95 0 57 -4 95 -10 95 -5 0 -10
19 -10 43 l1 42 19 -39 c11 -22 20 -48 20 -58 0 -10 7 -18 15 -18 8 0 15 -4
15 -10 0 -5 -7 -10 -15 -10 -12 0 -15 -14 -15 -70 0 -40 -4 -70 -10 -70 -5 0
-10 -9 -10 -20 0 -26 -27 -80 -40 -80 -6 0 -10 7 -10 15 0 8 -7 15 -15 15 -8
0 -15 -7 -15 -15 0 -8 -4 -15 -10 -15 -5 0 -13 -18 -16 -40 -4 -22 -10 -40
-15 -40 -5 0 -9 -4 -9 -10 0 -6 118 -10 335 -10 l335 0 0 125 c0 69 -3 125 -6
125 -9 0 -34 -28 -34 -38 0 -6 6 -12 13 -15 6 -2 9 -8 5 -12 -11 -12 -68 51
-68 74 0 12 -6 21 -15 21 -8 0 -15 7 -15 15 0 9 -9 15 -24 15 -13 0 -26 5 -28
12 -11 31 -108 3 -108 -31 0 -6 -4 -11 -10 -11 -14 0 -12 -28 3 -33 8 -3 3
-13 -15 -30 -32 -30 -35 -44 -10 -50 16 -4 16 -5 0 -6 -22 -1 -24 -31 -3 -31
8 0 15 -6 15 -14 0 -8 6 -16 13 -19 7 -2 8 -8 3 -13 -5 -5 -11 -4 -13 4 -6 16
-30 16 -36 0 -2 -8 -8 -9 -13 -4 -5 5 -4 11 3 13 15 5 17 33 3 33 -6 0 -10 27
-10 60 0 45 -4 62 -17 70 -13 8 -14 13 -5 16 14 7 16 34 2 34 -5 0 -10 7 -10
15 0 8 -7 15 -15 15 -8 0 -15 5 -15 10 0 6 7 10 15 10 8 0 15 7 15 15 0 8 -7
15 -15 15 -8 0 -15 5 -15 11 0 16 -26 39 -45 39 -9 0 -13 -4 -10 -10 13 -22
-18 -8 -46 19 -28 28 -39 61 -20 61 5 0 12 25 16 55 3 30 11 55 16 55 5 0 9
11 9 25 0 14 7 28 15 31 11 5 15 24 15 80 0 42 4 74 10 74 5 0 13 18 16 40 4
22 10 40 15 40 14 0 11 28 -3 33 -10 4 -9 8 2 16 13 9 13 13 1 33 -10 16 -10
23 -2 26 8 3 11 64 11 208 l0 204 25 0 c16 0 25 6 25 15 0 9 -9 15 -25 15 -20
0 -25 5 -25 26 0 26 -20 54 -39 54 -6 0 -11 7 -11 15 0 8 5 15 11 15 26 0 39
30 39 89 0 48 3 61 15 61 11 0 15 11 15 40 0 22 5 40 10 40 14 0 12 27 -2 34
-10 5 -10 7 0 12 6 3 12 15 12 25 0 11 -5 17 -10 14 -6 -4 -10 8 -10 29 0 20
5 36 10 36 6 0 10 7 10 15 0 8 -4 15 -10 15 -5 0 -10 -4 -10 -10 0 -5 -7 -10
-15 -10 -27 0 -19 64 10 86 28 21 33 44 9 44 -8 0 -12 -4 -9 -10 3 -5 -1 -10
-9 -10 -12 0 -16 10 -16 39 0 22 -6 42 -12 45 -10 5 -10 7 0 12 17 8 15 34 -3
34 -8 0 -15 7 -15 15 0 8 -4 15 -9 15 -6 0 -11 15 -13 33 -3 28 -7 32 -37 35
-19 2 -40 10 -48 18 -8 8 -23 14 -34 14 -23 0 -68 42 -51 48 7 2 12 8 12 13 0
14 -27 11 -34 -3 -5 -10 -7 -10 -12 0 -7 16 -1234 18 -1234 2 0 -5 -7 -10 -15
-10 -8 0 -15 -7 -15 -15 0 -8 -4 -15 -10 -15 -5 0 -10 -7 -10 -15 0 -8 -7 -15
-15 -15 -10 0 -15 -10 -15 -33 0 -26 -6 -37 -25 -47 -29 -15 -32 -35 -9 -44
14 -5 7 -15 -31 -51 -40 -36 -46 -45 -32 -51 23 -8 24 -84 2 -84 -8 0 -15 -6
-15 -14 0 -8 -6 -17 -12 -20 -9 -3 -7 -9 6 -20 17 -14 18 -16 3 -16 -14 0 -17
-11 -17 -69 0 -46 4 -71 13 -75 10 -5 10 -7 0 -12 -8 -3 -13 -24 -13 -49 0
-25 5 -46 13 -49 10 -5 10 -7 0 -12 -17 -7 -17 -31 0 -38 10 -5 10 -7 0 -12
-17 -7 -17 -81 0 -88 10 -5 10 -7 -1 -12 -18 -8 -15 -31 6 -39 16 -6 16 -7 0
-19 -20 -14 -24 -36 -8 -36 6 0 13 7 16 15 11 27 24 16 24 -20 0 -26 -7 -43
-27 -61 -28 -26 -25 -47 3 -23 13 11 18 11 21 2 3 -7 9 -13 14 -13 11 0 49
-32 49 -42 0 -5 -7 -8 -15 -8 -8 0 -15 -7 -15 -15 0 -8 -3 -15 -8 -15 -10 0
-42 38 -42 50 0 6 -7 10 -15 10 -10 0 -15 -10 -15 -30 0 -25 4 -30 25 -30 14
0 25 -4 25 -10 0 -5 7 -10 15 -10 8 0 15 5 15 10 0 14 27 12 34 -2 5 -10 7
-10 12 0 7 14 34 16 34 2 0 -5 -7 -10 -15 -10 -8 0 -15 -7 -15 -15 0 -8 7 -15
15 -15 17 0 20 -16 6 -25 -6 -3 -14 2 -19 11 -8 15 -11 15 -31 -5 l-21 -21 25
-24 c27 -26 32 -42 13 -49 -10 -3 -10 -7 0 -19 10 -13 10 -17 -4 -22 -14 -5
-15 -9 -5 -19 10 -9 14 -8 22 6 21 36 29 14 29 -78 0 -57 4 -95 10 -95 6 0 10
-7 10 -15 0 -8 -4 -15 -10 -15 -19 0 -10 -23 18 -46 20 -18 23 -24 10 -24 -9
0 -19 6 -22 13 -5 10 -7 10 -12 0 -7 -17 -31 -17 -38 0 -5 10 -7 10 -12 0 -7
-15 -34 -17 -34 -3 0 6 -7 10 -15 10 -8 0 -15 -4 -15 -10 0 -5 7 -10 15 -10 8
0 15 -7 15 -15 0 -8 -7 -15 -15 -15 -8 0 -15 -7 -15 -15 0 -8 7 -15 15 -15 8
0 15 7 15 15 0 8 7 15 15 15 11 0 15 -11 15 -40 0 -29 -4 -40 -15 -40 -8 0
-15 7 -15 15 0 8 -7 15 -15 15 -8 0 -15 -7 -15 -15 0 -8 -4 -15 -10 -15 -5 0
-10 7 -10 15 0 11 -11 15 -40 15 -22 0 -40 5 -40 10 0 6 5 10 10 10 6 0 10 7
10 15 0 20 -6 19 -30 -5 l-20 -20 20 -20 c11 -11 29 -20 40 -20 15 0 20 -7 20
-25 0 -26 -24 -35 -34 -12 -5 9 -7 9 -12 0 -3 -7 -12 -13 -20 -13 -10 0 -14
12 -14 40 0 29 -4 40 -15 40 -8 0 -15 -7 -15 -15 0 -8 -4 -15 -10 -15 -5 0
-10 5 -10 10 0 6 -9 20 -19 31 -14 16 -21 17 -27 8 -4 -7 -3 -14 4 -17 15 -5
16 -32 2 -32 -5 0 -10 7 -10 15 0 8 -7 15 -15 15 -8 0 -15 -5 -15 -11 0 -11
-54 -69 -64 -69 -3 0 -7 406 -9 903 -2 859 -2 845 -5 -300z m1326 1026 c5 -12
32 -12 32 0 0 5 18 8 40 7 22 0 40 -4 40 -8 0 -5 7 -8 15 -8 8 0 15 4 15 8 0
12 74 10 83 -2 5 -8 10 -6 16 3 8 12 12 12 25 2 13 -11 19 -11 31 -1 13 11 19
9 34 -9 10 -11 23 -21 30 -21 6 0 11 -7 11 -15 0 -8 7 -15 15 -15 8 0 15 -5
15 -11 0 -14 25 -39 39 -39 6 0 11 -7 11 -15 0 -8 7 -15 15 -15 11 0 15 -11
15 -40 0 -22 5 -40 10 -40 6 0 10 -15 10 -34 0 -19 5 -38 11 -41 6 -4 8 -13 5
-21 -6 -17 16 -114 26 -114 5 0 8 -24 8 -54 0 -35 5 -60 15 -70 17 -17 21 -76
5 -76 -14 0 -60 46 -60 60 0 5 -7 10 -15 10 -9 0 -15 -9 -15 -25 0 -19 5 -25
21 -25 22 0 49 -22 49 -39 0 -6 7 -11 15 -11 8 0 15 -7 15 -16 0 -8 -4 -12
-10 -9 -5 3 -10 -3 -10 -14 0 -12 5 -21 10 -21 6 0 10 -6 10 -14 0 -8 4 -16
10 -18 5 -1 13 -31 16 -65 4 -35 12 -63 18 -63 6 0 4 -5 -4 -10 -12 -8 -13
-13 -2 -30 17 -27 20 -232 4 -238 -16 -5 -15 -29 1 -35 8 -3 3 -13 -15 -30
-26 -24 -28 -32 -28 -107 0 -75 -2 -83 -27 -107 -19 -17 -24 -27 -15 -30 14
-5 16 -33 2 -33 -5 0 -10 -10 -10 -21 0 -12 -11 -32 -25 -45 -14 -13 -25 -32
-25 -44 0 -11 -7 -20 -15 -20 -8 0 -15 -6 -15 -14 0 -8 -8 -17 -17 -20 -14 -6
-12 -11 15 -36 18 -16 32 -31 32 -34 0 -3 -18 -6 -40 -6 l-40 0 0 40 c0 29 -4
40 -15 40 -8 0 -15 -8 -15 -17 -1 -17 -1 -17 -14 0 -14 19 -36 23 -36 7 0 -5
-7 -10 -15 -10 -8 0 -15 5 -15 10 0 6 -7 10 -15 10 -20 0 -19 -17 3 -29 16 -9
16 -11 -3 -25 -19 -13 -19 -15 -2 -21 19 -8 23 -25 6 -25 -7 0 -18 -8 -25 -17
-13 -17 -13 -17 -14 0 0 37 -20 15 -20 -23 0 -29 -4 -40 -15 -40 -8 0 -15 7
-15 15 0 21 -12 19 -33 -5 -20 -24 -22 -37 -4 -43 7 -2 8 -8 3 -13 -5 -5 -11
-4 -13 4 -7 19 -23 14 -49 -13 -27 -29 -34 -31 -34 -10 0 8 -5 15 -11 15 -14
0 -39 25 -39 39 0 6 5 11 10 11 14 0 12 27 -2 34 -10 5 -10 7 0 12 16 7 16 31
0 38 -10 5 -10 7 0 12 14 7 17 84 2 84 -5 0 -10 7 -10 15 0 8 5 15 10 15 6 0
10 11 10 25 0 23 -3 25 -50 25 -47 0 -50 2 -50 25 0 23 3 25 50 25 38 0 50 4
50 15 0 11 11 15 40 15 29 0 40 -4 40 -15 0 -12 13 -15 61 -15 55 0 64 -3 85
-27 27 -31 38 -26 41 23 1 28 -2 34 -18 34 -11 0 -17 -4 -14 -10 3 -5 -1 -10
-9 -10 -9 0 -16 5 -16 10 0 6 -22 10 -50 10 -47 0 -50 2 -50 25 0 16 -6 25
-15 25 -8 0 -15 -4 -15 -10 0 -6 -28 -10 -65 -10 -58 0 -65 2 -65 20 0 18 7
20 55 20 42 0 55 3 55 15 0 8 5 15 10 15 6 0 10 -7 10 -15 0 -8 6 -15 13 -15
7 0 19 -9 27 -20 15 -20 40 -27 40 -11 0 5 -6 12 -12 15 -10 5 -10 7 0 12 6 3
12 12 12 20 0 8 7 14 15 14 8 0 15 -6 15 -14 0 -8 6 -17 13 -19 9 -4 8 -8 -3
-16 -8 -5 -11 -14 -6 -18 5 -4 11 -2 13 5 3 6 11 12 19 12 21 0 17 15 -11 36
-14 10 -25 24 -25 31 0 7 -7 13 -15 13 -8 0 -15 5 -15 11 0 14 -25 39 -39 39
-6 0 -11 7 -11 15 0 8 -5 15 -11 15 -7 0 -23 12 -37 27 -16 18 -27 23 -30 15
-4 -14 -32 -16 -32 -2 0 6 -11 10 -25 10 -21 0 -25 5 -25 30 0 17 -4 30 -10
30 -5 0 -10 -7 -10 -15 0 -8 -7 -15 -15 -15 -10 0 -15 11 -15 35 0 24 -5 35
-15 35 -8 0 -15 -4 -15 -10 0 -5 -4 -10 -10 -10 -5 0 -10 16 -10 35 0 19 5 35
10 35 6 0 10 -4 10 -10 0 -5 7 -10 15 -10 18 0 20 26 3 34 -10 5 -10 7 0 12 6
3 12 12 12 20 0 8 7 14 15 14 8 0 15 6 15 14 0 8 6 16 13 19 10 4 10 7 0 18
-11 11 -13 10 -13 -4 0 -9 -7 -17 -15 -17 -13 0 -15 24 -15 155 l0 155 25 0
c16 0 25 6 25 15 0 8 5 15 10 15 6 0 10 -7 10 -15 0 -8 7 -15 15 -15 12 0 15
-13 15 -55 0 -30 4 -55 10 -55 5 0 12 -11 16 -25 10 -41 34 -31 34 15 0 22 5
40 10 40 6 0 10 -7 10 -15 0 -8 7 -15 15 -15 8 0 15 7 15 15 0 20 6 19 30 -5
24 -24 25 -30 5 -30 -8 0 -15 -7 -15 -15 0 -17 27 -20 32 -4 2 7 19 13 38 16
19 2 38 9 43 16 7 9 10 9 14 0 6 -15 33 -17 33 -3 0 6 7 10 15 10 8 0 15 7 15
15 0 8 5 15 10 15 6 0 10 -7 10 -15 0 -8 7 -15 15 -15 21 0 19 45 -2 70 -13
15 -30 20 -65 20 -27 0 -48 4 -48 9 0 5 -11 12 -25 15 -14 4 -25 11 -25 16 0
6 -7 10 -16 10 -24 0 -15 64 10 68 10 2 23 -2 28 -10 7 -10 11 -10 15 0 3 7
23 12 48 12 26 0 45 -5 48 -12 4 -10 7 -10 18 0 7 6 30 12 51 12 27 0 38 4 38
15 0 12 -13 15 -55 15 -52 0 -55 1 -55 25 0 24 -2 25 -65 25 -37 0 -65 -4 -65
-10 0 -5 -13 -10 -29 -10 -16 0 -36 -7 -45 -15 -8 -8 -19 -15 -25 -15 -6 0
-11 -4 -11 -10 0 -5 -11 -12 -25 -16 -13 -3 -27 -15 -30 -25 -6 -17 -17 -19
-91 -19 -46 0 -84 4 -84 9 0 5 -11 12 -25 15 -16 4 -25 13 -25 26 0 17 -7 20
-40 20 -22 0 -40 5 -40 10 0 6 5 10 10 10 6 0 10 7 10 15 0 18 -26 20 -34 3
-5 -10 -7 -10 -12 0 -7 16 -31 16 -36 0 -3 -9 -10 -7 -24 6 -17 18 -19 18 -22
3 -4 -18 -22 -24 -22 -7 0 6 -7 10 -15 10 -8 0 -15 -4 -15 -10 0 -15 -19 -12
-36 4 -16 17 -19 36 -4 36 6 0 10 7 10 15 0 8 -5 15 -10 15 -6 0 -13 -7 -16
-15 -4 -8 -10 -15 -15 -15 -5 0 -9 7 -9 15 0 8 -7 15 -15 15 -8 0 -15 -7 -15
-15 0 -8 -4 -15 -9 -15 -5 0 -11 7 -15 15 -3 8 -10 15 -16 15 -5 0 -10 -7 -10
-15 0 -8 -7 -15 -15 -15 -11 0 -15 11 -15 40 0 22 -4 40 -10 40 -5 0 -10 -7
-10 -15 0 -8 -4 -15 -10 -15 -17 0 -11 25 10 40 21 15 27 40 10 40 -5 0 -10
-4 -10 -10 0 -5 -4 -10 -10 -10 -6 0 -10 27 -10 60 0 63 7 73 28 40 7 -12 8
-20 2 -20 -5 0 -10 -7 -10 -15 0 -8 5 -15 10 -15 6 0 10 5 10 10 0 6 7 10 15
10 8 0 15 -4 15 -10 0 -5 7 -10 15 -10 20 0 19 19 0 26 -14 6 -13 8 2 20 16
12 16 15 3 24 -11 7 -16 5 -18 -5 -2 -8 -10 -15 -18 -15 -10 0 -14 12 -14 40
0 22 -4 40 -10 40 -5 0 -10 -7 -10 -15 0 -8 -4 -15 -10 -15 -17 0 -11 25 10
40 11 8 20 20 20 27 0 7 7 13 15 13 18 0 20 27 3 33 -7 2 -10 8 -6 12 8 9 38
-18 38 -34 0 -6 -4 -11 -10 -11 -5 0 -10 -7 -10 -15 0 -8 5 -15 10 -15 6 0 13
7 16 15 4 8 10 15 15 15 5 0 9 -7 9 -15 0 -8 7 -15 15 -15 23 0 18 18 -12 46
-14 13 -23 28 -18 32 4 4 10 1 12 -5 6 -18 33 -16 33 2 0 8 -5 15 -11 15 -11
0 -39 25 -39 35 0 10 27 35 38 35 6 0 12 6 15 13 3 9 8 8 22 -3 14 -11 19 -12
22 -2 3 6 11 12 18 12 7 0 15 -6 18 -12 3 -10 8 -9 22 2 14 11 19 12 22 3 3
-7 11 -13 18 -13 7 0 16 -6 19 -12 5 -10 7 -10 12 0 3 6 12 12 19 12 7 0 15 6
18 13 3 9 8 8 22 -3 14 -11 19 -12 22 -2 3 6 11 12 18 12 7 0 15 -6 18 -12 3
-10 7 -10 18 -1 27 22 169 23 177 2z m-568 -43 c0 -8 6 -16 13 -19 6 -2 9 -8
5 -12 -8 -9 -38 18 -38 34 0 6 5 11 10 11 6 0 10 -6 10 -14z m-50 -106 c0 -5
-4 -10 -10 -10 -5 0 -10 5 -10 10 0 6 5 10 10 10 6 0 10 -4 10 -10z m1250
-110 c0 -5 -4 -10 -10 -10 -5 0 -10 5 -10 10 0 6 5 10 10 10 6 0 10 -4 10 -10z
m-1300 -100 c0 -5 -4 -10 -10 -10 -5 0 -10 5 -10 10 0 6 5 10 10 10 6 0 10 -4
10 -10z m1250 0 c0 -5 -4 -10 -10 -10 -5 0 -10 5 -10 10 0 6 5 10 10 10 6 0
10 -4 10 -10z m-1250 -55 c0 -8 -4 -15 -10 -15 -5 0 -10 7 -10 15 0 8 5 15 10
15 6 0 10 -7 10 -15z m0 -80 c0 -41 -3 -42 -30 -15 -24 24 -25 30 -5 30 8 0
15 5 15 10 0 6 5 10 10 10 6 0 10 -16 10 -35z m56 21 c8 -8 14 -19 14 -25 0
-6 7 -11 15 -11 8 0 15 -4 15 -10 0 -14 -27 -12 -34 3 -5 10 -7 10 -12 0 -11
-25 -24 -13 -24 22 0 39 4 42 26 21z m-116 -46 c0 -5 -4 -10 -10 -10 -5 0 -10
5 -10 10 0 6 5 10 10 10 6 0 10 -4 10 -10z m210 0 c0 -5 -4 -10 -10 -10 -5 0
-10 5 -10 10 0 6 5 10 10 10 6 0 10 -4 10 -10z m50 0 c0 -5 -4 -10 -10 -10 -5
0 -10 5 -10 10 0 6 5 10 10 10 6 0 10 -4 10 -10z m-210 -55 c0 -8 -4 -15 -10
-15 -5 0 -10 7 -10 15 0 8 5 15 10 15 6 0 10 -7 10 -15z m1310 0 c0 -8 -4 -15
-10 -15 -5 0 -10 7 -10 15 0 8 5 15 10 15 6 0 10 -7 10 -15z m-1360 -5 c0 -5
-4 -10 -10 -10 -5 0 -10 5 -10 10 0 6 5 10 10 10 6 0 10 -4 10 -10z m532 -24
c17 -13 23 -33 20 -68 -2 -23 -52 -25 -52 -3 0 18 -27 20 -33 3 -2 -7 -8 -9
-13 -5 -5 4 -4 11 2 15 6 4 14 17 18 30 6 16 3 22 -8 22 -9 0 -16 5 -16 10 0
15 62 12 82 -4z m-532 -16 c0 -5 -4 -10 -10 -10 -5 0 -10 5 -10 10 0 6 5 10
10 10 6 0 10 -4 10 -10z m160 0 c0 -5 -4 -10 -10 -10 -5 0 -10 5 -10 10 0 6 5
10 10 10 6 0 10 -4 10 -10z m1200 0 c0 -5 -4 -10 -10 -10 -5 0 -10 5 -10 10 0
6 5 10 10 10 6 0 10 -4 10 -10z m-1150 -70 c0 -27 -2 -50 -4 -50 -7 0 -76 67
-76 74 0 3 7 6 15 6 8 0 15 5 15 10 0 6 11 10 25 10 23 0 25 -3 25 -50z m680
29 c0 -22 -22 -49 -39 -49 -6 0 -11 -7 -11 -15 0 -9 -9 -15 -25 -15 -23 0 -25
3 -25 50 l0 50 50 0 c44 0 50 -3 50 -21z m-1150 -14 c0 -8 -4 -15 -10 -15 -5
0 -10 7 -10 15 0 8 5 15 10 15 6 0 10 -7 10 -15z m520 0 c0 -8 -4 -15 -10 -15
-5 0 -10 7 -10 15 0 8 5 15 10 15 6 0 10 -7 10 -15z m110 5 c0 -5 -8 -10 -17
-10 -10 0 -28 -3 -40 -6 -17 -5 -23 -2 -23 10 0 12 10 16 40 16 22 0 40 -4 40
-10z m50 0 c0 -5 -4 -10 -10 -10 -5 0 -10 5 -10 10 0 6 5 10 10 10 6 0 10 -4
10 -10z m-680 -60 c0 -5 -4 -10 -10 -10 -5 0 -10 5 -10 10 0 6 5 10 10 10 6 0
10 -4 10 -10z m210 0 c0 -5 -4 -10 -10 -10 -5 0 -10 5 -10 10 0 6 5 10 10 10
6 0 10 -4 10 -10z m210 0 c0 -5 -7 -10 -15 -10 -8 0 -15 5 -15 10 0 6 7 10 15
10 8 0 15 -4 15 -10z m470 0 c0 -5 -4 -10 -10 -10 -5 0 -10 5 -10 10 0 6 5 10
10 10 6 0 10 -4 10 -10z m440 -26 c0 -3 -7 -12 -15 -21 -20 -19 -32 -10 -14
11 14 15 29 21 29 10z m-1120 -23 c0 -6 -4 -13 -10 -16 -5 -3 -10 1 -10 9 0 9
5 16 10 16 6 0 10 -4 10 -9z m50 -6 c0 -8 -4 -15 -10 -15 -5 0 -10 7 -10 15 0
8 5 15 10 15 6 0 10 -7 10 -15z m530 5 c0 -5 -7 -10 -15 -10 -8 0 -15 5 -15
10 0 6 7 10 15 10 8 0 15 -4 15 -10z m100 0 c0 -5 -4 -10 -10 -10 -5 0 -10 5
-10 10 0 6 5 10 10 10 6 0 10 -4 10 -10z m-840 -55 c0 -8 -4 -15 -10 -15 -5 0
-10 7 -10 15 0 8 5 15 10 15 6 0 10 -7 10 -15z m160 0 c0 -8 -4 -15 -10 -15
-5 0 -10 7 -10 15 0 8 5 15 10 15 6 0 10 -7 10 -15z m41 -58 c-8 -8 -11 -1
-11 24 0 46 14 60 18 19 2 -18 -1 -37 -7 -43z m219 58 c0 -8 -4 -15 -10 -15
-5 0 -10 7 -10 15 0 8 5 15 10 15 6 0 10 -7 10 -15z m-160 -5 c0 -5 -4 -10
-10 -10 -5 0 -10 5 -10 10 0 6 5 10 10 10 6 0 10 -4 10 -10z m320 0 c0 -5 -4
-10 -10 -10 -5 0 -10 5 -10 10 0 6 5 10 10 10 6 0 10 -4 10 -10z m50 0 c0 -5
-4 -10 -10 -10 -5 0 -10 5 -10 10 0 6 5 10 10 10 6 0 10 -4 10 -10z m-630 -50
c0 -5 -2 -10 -4 -10 -3 0 -8 5 -11 10 -3 6 -1 10 4 10 6 0 11 -4 11 -10z m267
4 c-3 -3 -12 -4 -19 -1 -8 3 -5 6 6 6 11 1 17 -2 13 -5z m103 2 c0 -11 -19
-15 -25 -6 -3 5 1 10 9 10 9 0 16 -2 16 -4z m167 -11 c8 -9 13 -18 10 -21 -3
-3 -15 4 -26 15 -12 12 -16 21 -10 21 6 0 17 -7 26 -15z m93 5 c0 -5 7 -10 15
-10 8 0 15 5 15 10 0 6 5 10 10 10 6 0 10 -16 10 -35 0 -19 -4 -35 -10 -35 -5
0 -10 7 -10 15 0 8 -7 15 -15 15 -8 0 -15 -7 -15 -15 0 -8 -4 -15 -10 -15 -5
0 -10 7 -10 15 0 8 -7 15 -15 15 -8 0 -15 -7 -15 -15 0 -8 -4 -15 -10 -15 -5
0 -10 5 -10 11 0 14 25 39 39 39 6 0 11 5 11 10 0 6 5 10 10 10 6 0 10 -4 10
-10z m-390 -20 c0 -5 -4 -10 -10 -10 -5 0 -10 5 -10 10 0 6 5 10 10 10 6 0 10
-4 10 -10z m50 0 c0 -5 -4 -10 -10 -10 -5 0 -10 -7 -10 -15 0 -8 -7 -15 -15
-15 -20 0 -19 9 3 31 19 20 32 24 32 9z m-130 -25 c0 -8 7 -15 15 -15 8 0 15
7 15 15 0 8 5 15 10 15 6 0 10 -7 10 -15 0 -8 -4 -15 -10 -15 -14 0 -12 -28 3
-33 6 -2 9 -8 5 -12 -4 -4 -21 6 -38 23 -30 31 -39 52 -20 52 6 0 10 -7 10
-15z m260 0 c0 -8 -4 -15 -10 -15 -5 0 -10 7 -10 15 0 8 5 15 10 15 6 0 10 -7
10 -15z m50 0 c0 -8 -4 -15 -10 -15 -5 0 -10 7 -10 15 0 8 5 15 10 15 6 0 10
-7 10 -15z m60 -6 c0 -5 -7 -9 -15 -9 -15 0 -20 12 -9 23 8 8 24 -1 24 -14z
m310 10 c0 -10 -37 -49 -47 -49 -1 0 -3 7 -3 15 0 8 7 15 15 15 8 0 15 7 15
15 0 8 5 15 10 15 6 0 10 -5 10 -11z m-514 -13 c17 -18 18 -33 2 -39 -10 -4
-10 -7 0 -18 10 -11 12 -10 12 4 0 13 9 17 39 17 22 0 41 -4 43 -10 2 -5 31
-13 66 -16 34 -4 62 -11 62 -15 0 -5 7 -9 15 -9 8 0 15 4 15 10 0 5 17 12 38
16 20 4 41 12 45 18 6 8 10 7 14 -1 2 -7 18 -13 34 -13 30 0 34 -9 19 -45 -7
-18 -8 -19 -15 -2 -9 21 -35 23 -35 2 0 -8 7 -15 15 -15 8 0 15 -4 15 -10 0
-5 -7 -10 -15 -10 -13 0 -15 -15 -13 -92 2 -68 6 -92 16 -90 6 1 12 -5 12 -13
0 -8 7 -15 16 -15 17 0 14 -22 -4 -28 -7 -2 -12 3 -12 12 0 9 -7 16 -15 16 -8
0 -15 -5 -15 -11 0 -6 -6 -17 -14 -25 -8 -8 -19 -14 -25 -14 -6 0 -11 -7 -11
-15 0 -8 -4 -15 -10 -15 -5 0 -10 -7 -10 -15 0 -8 -5 -15 -11 -15 -7 0 -18 -8
-25 -17 -13 -17 -13 -17 -14 0 0 9 -7 17 -15 17 -10 0 -15 -11 -15 -35 0 -24
-5 -35 -15 -35 -8 0 -15 5 -15 10 0 6 -7 10 -16 10 -11 0 -14 -9 -12 -37 3
-35 28 -61 28 -29 0 9 7 16 15 16 11 0 15 -11 15 -40 0 -29 -4 -40 -15 -40 -8
0 -15 7 -15 16 0 17 -22 14 -28 -4 -2 -7 3 -12 12 -12 9 0 16 -7 16 -15 0 -8
7 -15 15 -15 8 0 15 -4 15 -10 0 -5 -7 -10 -15 -10 -8 0 -15 5 -15 10 0 6 -7
10 -15 10 -8 0 -15 -4 -15 -10 0 -5 -4 -10 -10 -10 -6 0 -10 37 -10 90 0 71
-3 90 -14 90 -8 0 -17 -6 -20 -12 -5 -10 -7 -10 -12 0 -7 14 -34 16 -34 2 0
-5 -7 -10 -15 -10 -12 0 -15 13 -15 58 0 44 -5 63 -20 80 -15 16 -20 35 -20
81 0 51 4 64 25 86 14 14 30 25 35 25 6 0 10 7 10 15 0 8 7 15 15 15 8 0 15 6
15 14 0 8 6 17 13 20 10 5 10 7 0 12 -7 3 -13 12 -13 20 0 8 -7 14 -15 14 -18
0 -20 -26 -2 -34 10 -5 10 -7 0 -12 -7 -3 -13 -12 -13 -20 0 -8 -7 -14 -15
-14 -8 0 -15 6 -15 14 0 8 -6 17 -12 20 -10 5 -10 7 0 12 14 7 16 34 2 34 -5
0 -10 -7 -10 -15 0 -8 -4 -15 -10 -15 -6 0 -10 28 -10 65 0 68 3 74 26 51z
m404 4 c0 -5 -4 -10 -10 -10 -5 0 -10 5 -10 10 0 6 5 10 10 10 6 0 10 -4 10
-10z m-570 -50 c0 -5 -4 -10 -10 -10 -5 0 -10 5 -10 10 0 6 5 10 10 10 6 0 10
-4 10 -10z m110 0 c0 -5 -7 -10 -15 -10 -8 0 -15 5 -15 10 0 6 7 10 15 10 8 0
15 -4 15 -10z m-110 -55 c0 -8 -4 -15 -10 -15 -5 0 -10 7 -10 15 0 8 5 15 10
15 6 0 10 -7 10 -15z m110 1 c0 -8 6 -16 13 -19 6 -2 9 -7 5 -11 -7 -8 -48 23
-48 36 0 5 7 8 15 8 8 0 15 -6 15 -14z m-110 -51 c0 -8 -4 -15 -10 -15 -5 0
-10 7 -10 15 0 8 5 15 10 15 6 0 10 -7 10 -15z m50 0 c0 -8 -4 -15 -10 -15 -5
0 -10 7 -10 15 0 8 5 15 10 15 6 0 10 -7 10 -15z m110 0 c0 -8 5 -15 10 -15
15 0 12 -19 -4 -36 -22 -21 -26 -17 -26 26 0 22 5 40 10 40 6 0 10 -7 10 -15z
m-50 -5 c0 -5 -7 -10 -15 -10 -8 0 -15 5 -15 10 0 6 7 10 15 10 8 0 15 -4 15
-10z m-210 -50 c0 -5 -7 -10 -16 -10 -8 0 -12 5 -9 10 3 6 10 10 16 10 5 0 9
-4 9 -10z m100 0 c0 -5 -4 -10 -10 -10 -5 0 -10 5 -10 10 0 6 5 10 10 10 6 0
10 -4 10 -10z m50 0 c0 -5 -4 -10 -10 -10 -5 0 -10 5 -10 10 0 6 5 10 10 10 6
0 10 -4 10 -10z m60 0 c0 -5 -7 -10 -15 -10 -8 0 -15 5 -15 10 0 6 7 10 15 10
8 0 15 -4 15 -10z m520 0 c0 -5 -4 -10 -10 -10 -5 0 -10 5 -10 10 0 6 5 10 10
10 6 0 10 -4 10 -10z m27 -26 c-3 -3 -12 -4 -19 -1 -8 3 -5 6 6 6 11 1 17 -2
13 -5z m-607 -19 c0 -8 -4 -15 -10 -15 -5 0 -10 7 -10 15 0 8 5 15 10 15 6 0
10 -7 10 -15z m60 -6 c0 -5 -7 -9 -15 -9 -15 0 -20 12 -9 23 8 8 24 -1 24 -14z
m470 1 c0 -5 -7 -10 -15 -10 -8 0 -15 5 -15 10 0 6 7 10 15 10 8 0 15 -4 15
-10z m-470 -50 c0 -5 -7 -10 -15 -10 -8 0 -15 5 -15 10 0 6 7 10 15 10 8 0 15
-4 15 -10z m700 -30 c0 -5 -4 -10 -10 -10 -5 0 -10 5 -10 10 0 6 5 10 10 10 6
0 10 -4 10 -10z m-700 -18 c0 -13 -12 -22 -22 -16 -10 6 -1 24 13 24 5 0 9 -4
9 -8z m50 -62 c0 -5 -4 -10 -10 -10 -5 0 -10 5 -10 10 0 6 5 10 10 10 6 0 10
-4 10 -10z m360 0 c0 -5 -4 -10 -10 -10 -5 0 -10 5 -10 10 0 6 5 10 10 10 6 0
10 -4 10 -10z m-360 -55 c0 -8 -4 -15 -10 -15 -5 0 -10 7 -10 15 0 8 5 15 10
15 6 0 10 -7 10 -15z m260 -45 c0 -5 -4 -10 -10 -10 -5 0 -10 5 -10 10 0 6 5
10 10 10 6 0 10 -4 10 -10z m50 0 c0 -5 -4 -10 -10 -10 -5 0 -10 5 -10 10 0 6
5 10 10 10 6 0 10 -4 10 -10z m270 0 c0 -5 -7 -10 -16 -10 -8 0 -12 5 -9 10 3
6 10 10 16 10 5 0 9 -4 9 -10z m-580 -50 c0 -5 -4 -10 -10 -10 -5 0 -10 5 -10
10 0 6 5 10 10 10 6 0 10 -4 10 -10z m48 -1 c-2 -6 -8 -10 -13 -10 -5 0 -11 4
-13 10 -2 6 4 11 13 11 9 0 15 -5 13 -11z m52 1 c0 -5 -4 -10 -10 -10 -5 0
-10 5 -10 10 0 6 5 10 10 10 6 0 10 -4 10 -10z m210 0 c0 -5 -4 -10 -10 -10
-5 0 -10 5 -10 10 0 6 5 10 10 10 6 0 10 -4 10 -10z m-570 -55 c0 -8 -7 -15
-15 -15 -16 0 -20 12 -8 23 11 12 23 8 23 -8z m310 0 c0 -8 -4 -15 -10 -15 -5
0 -10 7 -10 15 0 8 5 15 10 15 6 0 10 -7 10 -15z m210 0 c0 -8 -4 -15 -10 -15
-5 0 -10 7 -10 15 0 8 5 15 10 15 6 0 10 -7 10 -15z m50 0 c0 -8 -4 -15 -10
-15 -5 0 -10 7 -10 15 0 8 5 15 10 15 6 0 10 -7 10 -15z m210 -10 c0 -20 -5
-25 -25 -25 -16 0 -25 -6 -25 -15 0 -32 -26 -14 -28 20 -2 26 1 35 13 35 8 0
15 -4 15 -10 0 -5 7 -10 15 -10 8 0 15 7 15 15 0 8 5 15 10 15 6 0 10 -11 10
-25z m-160 5 c0 -5 -4 -10 -10 -10 -5 0 -10 5 -10 10 0 6 5 10 10 10 6 0 10
-4 10 -10z m60 0 c0 -5 -7 -10 -15 -10 -8 0 -15 -7 -15 -15 0 -8 7 -15 15 -15
8 0 15 -4 15 -10 0 -17 -25 -11 -38 10 -10 16 -10 23 0 35 15 16 38 20 38 5z
m-1050 -50 c0 -5 -4 -10 -10 -10 -5 0 -10 5 -10 10 0 6 5 10 10 10 6 0 10 -4
10 -10z m60 0 c0 -5 -7 -10 -15 -10 -8 0 -15 5 -15 10 0 6 7 10 15 10 8 0 15
-4 15 -10z m40 0 c0 -5 -4 -10 -10 -10 -5 0 -10 5 -10 10 0 6 5 10 10 10 6 0
10 -4 10 -10z m630 0 c0 -5 -4 -10 -10 -10 -5 0 -10 5 -10 10 0 6 5 10 10 10
6 0 10 -4 10 -10z m160 0 c0 -5 -4 -10 -10 -10 -5 0 -10 5 -10 10 0 6 5 10 10
10 6 0 10 -4 10 -10z m50 0 c0 -5 -4 -10 -10 -10 -5 0 -10 5 -10 10 0 6 5 10
10 10 6 0 10 -4 10 -10z m50 0 c0 -5 -4 -10 -10 -10 -5 0 -10 5 -10 10 0 6 5
10 10 10 6 0 10 -4 10 -10z m260 0 c0 -5 -4 -10 -10 -10 -5 0 -10 5 -10 10 0
6 5 10 10 10 6 0 10 -4 10 -10z m-1300 -55 c0 -8 -4 -15 -10 -15 -5 0 -10 7
-10 15 0 8 5 15 10 15 6 0 10 -7 10 -15z m50 0 c0 -8 -4 -15 -10 -15 -5 0 -10
7 -10 15 0 8 5 15 10 15 6 0 10 -7 10 -15z m58 3 c-6 -18 -28 -21 -28 -4 0 9
7 16 16 16 9 0 14 -5 12 -12z m42 -4 c0 -8 -4 -12 -10 -9 -5 3 -10 10 -10 16
0 5 5 9 10 9 6 0 10 -7 10 -16z m58 5 c-2 -6 -8 -10 -13 -10 -5 0 -11 4 -13
10 -2 6 4 11 13 11 9 0 15 -5 13 -11z m102 -4 c0 -8 -4 -15 -10 -15 -5 0 -10
7 -10 15 0 8 5 15 10 15 6 0 10 -7 10 -15z m110 0 c0 -8 -4 -15 -10 -15 -5 0
-10 7 -10 15 0 8 5 15 10 15 6 0 10 -7 10 -15z m520 0 c0 -8 -4 -15 -10 -15
-5 0 -10 7 -10 15 0 8 5 15 10 15 6 0 10 -7 10 -15z m50 5 c0 -5 -4 -10 -10
-10 -5 0 -10 5 -10 10 0 6 5 10 10 10 6 0 10 -4 10 -10z m54 -5 c3 -8 10 -15
16 -15 5 0 10 7 10 15 0 8 7 15 15 15 8 0 15 -6 15 -14 0 -8 6 -17 13 -20 10
-5 10 -7 0 -12 -17 -8 -16 -22 1 -40 17 -16 36 -19 36 -4 0 6 -4 10 -10 10 -5
0 -10 7 -10 15 0 8 5 15 10 15 6 0 10 -7 10 -15 0 -9 9 -15 25 -15 20 0 25 -5
25 -25 0 -14 -4 -25 -10 -25 -5 0 -10 7 -10 15 0 8 -7 15 -15 15 -8 0 -15 -7
-15 -15 0 -20 -10 -19 -26 3 -13 16 -15 16 -25 -1 -5 -9 -14 -15 -20 -12 -14
9 -11 25 6 25 8 0 15 5 15 10 0 6 -7 10 -15 10 -8 0 -15 7 -15 15 0 8 -7 15
-15 15 -8 0 -15 -7 -15 -15 0 -8 -4 -15 -10 -15 -5 0 -10 18 -10 40 0 40 13
53 24 25z m106 0 c0 -8 -4 -15 -9 -15 -13 0 -22 16 -14 24 11 11 23 6 23 -9z
m630 5 c0 -5 -4 -10 -10 -10 -5 0 -10 5 -10 10 0 6 5 10 10 10 6 0 10 -4 10
-10z m-1650 -30 c0 -5 -4 -10 -10 -10 -5 0 -10 5 -10 10 0 6 5 10 10 10 6 0
10 -4 10 -10z m1510 0 c0 -5 -4 -10 -10 -10 -5 0 -10 5 -10 10 0 6 5 10 10 10
6 0 10 -4 10 -10z m-1590 -25 c0 -8 -4 -15 -10 -15 -5 0 -10 7 -10 15 0 8 5
15 10 15 6 0 10 -7 10 -15z m52 0 c0 -5 -5 -11 -11 -13 -6 -2 -11 4 -11 13 0
9 5 15 11 13 6 -2 11 -8 11 -13z m888 0 c0 -8 -4 -15 -10 -15 -5 0 -10 7 -10
15 0 8 5 15 10 15 6 0 10 -7 10 -15z m306 -12 c-10 -10 -19 5 -10 18 6 11 8
11 12 0 2 -7 1 -15 -2 -18z m374 12 c0 -8 -4 -15 -10 -15 -5 0 -10 7 -10 15 0
8 5 15 10 15 6 0 10 -7 10 -15z m-50 -5 c0 -5 -4 -10 -9 -10 -6 0 -13 5 -16
10 -3 6 1 10 9 10 9 0 16 -4 16 -10z m-1512 -42 c-6 -18 -28 -21 -28 -4 0 9 7
16 16 16 9 0 14 -5 12 -12z m42 -4 c0 -8 -4 -12 -10 -9 -5 3 -10 10 -10 16 0
5 5 9 10 9 6 0 10 -7 10 -16z m58 5 c-2 -6 -8 -10 -13 -10 -5 0 -11 4 -13 10
-2 6 4 11 13 11 9 0 15 -5 13 -11z m1052 6 c0 -12 -42 -46 -48 -39 -4 3 -1 9
6 11 6 3 12 11 12 19 0 8 7 14 15 14 8 0 15 -2 15 -5z m40 -5 c0 -5 -4 -10
-10 -10 -5 0 -10 5 -10 10 0 6 5 10 10 10 6 0 10 -4 10 -10z m-1300 -55 c0 -8
-4 -15 -10 -15 -5 0 -10 7 -10 15 0 8 5 15 10 15 6 0 10 -7 10 -15z m1200 0
c0 -8 -4 -15 -10 -15 -5 0 -10 7 -10 15 0 8 5 15 10 15 6 0 10 -7 10 -15z m60
-6 c0 -5 -7 -9 -15 -9 -8 0 -15 -7 -15 -15 0 -8 7 -15 15 -15 8 0 15 -4 15
-10 0 -15 -19 -12 -36 4 -18 18 -18 22 3 45 16 19 33 19 33 0z m40 1 c0 -5 -4
-10 -10 -10 -5 0 -10 5 -10 10 0 6 5 10 10 10 6 0 10 -4 10 -10z m630 5 c0
-11 -34 -44 -42 -39 -13 9 -9 24 7 24 8 0 15 5 15 10 0 6 5 10 10 10 6 0 10
-2 10 -5z m-1300 -55 c0 -5 -7 -10 -15 -10 -8 0 -15 5 -15 10 0 6 7 10 15 10
8 0 15 -4 15 -10z m570 0 c0 -5 -4 -10 -10 -10 -5 0 -10 5 -10 10 0 6 5 10 10
10 6 0 10 -4 10 -10z m100 0 c0 -5 -4 -10 -10 -10 -5 0 -10 5 -10 10 0 6 5 10
10 10 6 0 10 -4 10 -10z m630 -5 c0 -8 7 -15 15 -15 8 0 15 -4 15 -10 0 -5 7
-10 15 -10 8 0 15 -7 15 -15 0 -8 -4 -15 -10 -15 -5 0 -19 -8 -30 -17 -27 -23
-29 -92 -2 -94 16 -1 16 -2 0 -6 -10 -2 -18 -9 -18 -15 0 -10 -54 -68 -64 -68
-3 0 -6 14 -6 31 0 30 19 59 39 59 6 0 11 7 11 15 0 8 -7 15 -15 15 -8 0 -15
5 -15 10 0 6 7 13 15 16 8 4 15 12 15 20 0 8 -7 14 -15 14 -8 0 -15 5 -15 10
0 6 7 10 15 10 11 0 15 11 15 40 0 22 5 40 10 40 6 0 10 -7 10 -15z m-1880
-50 c0 -8 -4 -15 -10 -15 -5 0 -10 7 -10 15 0 8 5 15 10 15 6 0 10 -7 10 -15z
m2090 0 c0 -8 7 -15 15 -15 8 0 15 -4 15 -10 0 -15 -19 -12 -36 4 -16 17 -19
36 -4 36 6 0 10 -7 10 -15z m-1510 -56 c0 -5 -7 -9 -15 -9 -15 0 -20 12 -9 23
8 8 24 -1 24 -14z m1360 1 c0 -5 -7 -10 -15 -10 -8 0 -15 5 -15 10 0 6 7 10
15 10 8 0 15 -4 15 -10z m100 -50 c0 -5 -4 -10 -10 -10 -5 0 -10 5 -10 10 0 6
5 10 10 10 6 0 10 -4 10 -10z m50 0 c0 -5 -4 -10 -10 -10 -5 0 -10 5 -10 10 0
6 5 10 10 10 6 0 10 -4 10 -10z m160 0 c0 -5 -4 -10 -10 -10 -5 0 -10 5 -10
10 0 6 5 10 10 10 6 0 10 -4 10 -10z m-1607 -27 c-7 -2 -13 -11 -13 -19 0 -8
-4 -14 -10 -14 -5 0 -10 9 -10 20 0 14 6 20 23 19 12 0 16 -3 10 -6z m48 -33
c14 0 11 -20 -5 -36 -17 -16 -36 -19 -36 -4 0 6 7 10 15 10 8 0 15 7 15 15 0
8 -7 15 -15 15 -18 0 -20 17 -2 23 6 2 13 -2 15 -10 2 -7 8 -13 13 -13z m59
-60 c30 -30 38 -50 20 -50 -5 0 -10 7 -10 15 0 8 -7 15 -15 15 -8 0 -15 -7
-15 -15 0 -8 -4 -15 -10 -15 -5 0 -10 7 -10 15 0 8 -7 15 -15 15 -8 0 -15 -7
-15 -15 0 -16 -12 -20 -23 -8 -5 4 44 64 60 72 1 0 16 -12 33 -29z m610 20 c0
-5 -4 -10 -10 -10 -5 0 -10 5 -10 10 0 6 5 10 10 10 6 0 10 -4 10 -10z m730 0
c0 -5 -4 -10 -10 -10 -5 0 -10 5 -10 10 0 6 5 10 10 10 6 0 10 -4 10 -10z
m-290 -30 c0 -5 -4 -10 -10 -10 -5 0 -10 5 -10 10 0 6 5 10 10 10 6 0 10 -4
10 -10z m55 0 c3 -5 -1 -10 -9 -10 -9 0 -16 -7 -16 -15 0 -8 -4 -15 -10 -15
-14 0 -13 18 3 35 14 17 24 18 32 5z m105 0 c0 -5 -4 -10 -10 -10 -5 0 -10 5
-10 10 0 6 5 10 10 10 6 0 10 -4 10 -10z m66 -4 c16 -17 19 -36 4 -36 -5 0
-10 7 -10 15 0 8 -7 15 -15 15 -8 0 -15 -7 -15 -15 0 -8 -4 -15 -10 -15 -14 0
-13 18 3 35 16 18 25 18 43 1z m-2076 -21 c0 -8 -4 -15 -10 -15 -5 0 -10 7
-10 15 0 8 5 15 10 15 6 0 10 -7 10 -15z m1360 0 c0 -8 -7 -15 -15 -15 -8 0
-15 7 -15 15 0 8 7 15 15 15 8 0 15 -7 15 -15z m420 0 c0 -8 -4 -15 -10 -15
-5 0 -10 7 -10 15 0 8 5 15 10 15 6 0 10 -7 10 -15z m410 -5 c0 -5 -2 -10 -4
-10 -3 0 -8 5 -11 10 -3 6 -1 10 4 10 6 0 11 -4 11 -10z"/>
<path d="M810 2185 c0 -8 7 -15 15 -15 8 0 15 7 15 15 0 8 -7 15 -15 15 -8 0
-15 -7 -15 -15z"/>
<path d="M860 2185 c0 -8 7 -15 15 -15 8 0 15 7 15 15 0 8 -7 15 -15 15 -8 0
-15 -7 -15 -15z"/>
<path d="M920 2185 c0 -8 7 -15 15 -15 8 0 15 7 15 15 0 8 -7 15 -15 15 -8 0
-15 -7 -15 -15z"/>
<path d="M970 2185 c0 -8 7 -15 15 -15 8 0 15 7 15 15 0 8 -7 15 -15 15 -8 0
-15 -7 -15 -15z"/>
<path d="M867 2143 c-12 -11 -8 -23 8 -23 8 0 15 7 15 15 0 16 -12 20 -23 8z"/>
<path d="M860 2075 c0 -8 7 -15 15 -15 8 0 15 7 15 15 0 8 -7 15 -15 15 -8 0
-15 -7 -15 -15z"/>
<path d="M760 2025 c0 -8 7 -15 15 -15 8 0 15 7 15 15 0 8 -7 15 -15 15 -8 0
-15 -7 -15 -15z"/>
<path d="M810 2025 c0 -8 7 -15 15 -15 8 0 15 7 15 15 0 8 -7 15 -15 15 -8 0
-15 -7 -15 -15z"/>
<path d="M920 2025 c0 -8 5 -15 10 -15 6 0 10 7 10 15 0 8 -4 15 -10 15 -5 0
-10 -7 -10 -15z"/>
<path d="M810 1965 c0 -8 7 -15 15 -15 8 0 15 7 15 15 0 8 -7 15 -15 15 -8 0
-15 -7 -15 -15z"/>
<path d="M862 1968 c6 -18 28 -21 28 -4 0 9 -7 16 -16 16 -9 0 -14 -5 -12 -12z"/>
<path d="M810 1925 c0 -8 7 -15 15 -15 8 0 15 7 15 15 0 8 -7 15 -15 15 -8 0
-15 -7 -15 -15z"/>
<path d="M867 1933 c-12 -11 -8 -23 8 -23 8 0 15 7 15 15 0 16 -12 20 -23 8z"/>
<path d="M920 1925 c0 -8 5 -15 10 -15 6 0 10 7 10 15 0 8 -4 15 -10 15 -5 0
-10 -7 -10 -15z"/>
<path d="M760 1864 c0 -17 22 -14 28 4 2 7 -3 12 -12 12 -9 0 -16 -7 -16 -16z"/>
<path d="M810 1865 c0 -8 7 -15 15 -15 8 0 15 7 15 15 0 8 -7 15 -15 15 -8 0
-15 -7 -15 -15z"/>
<path d="M862 1868 c6 -18 28 -21 28 -4 0 9 -7 16 -16 16 -9 0 -14 -5 -12 -12z"/>
<path d="M760 1815 c0 -8 7 -15 15 -15 8 0 15 7 15 15 0 8 -7 15 -15 15 -8 0
-15 -7 -15 -15z"/>
<path d="M810 1815 c0 -8 7 -15 15 -15 8 0 15 7 15 15 0 8 -7 15 -15 15 -8 0
-15 -7 -15 -15z"/>
<path d="M920 1765 c0 -8 -7 -15 -15 -15 -8 0 -15 -7 -15 -15 0 -8 7 -15 15
-15 8 0 15 7 15 15 0 8 7 15 15 15 8 0 15 7 15 15 0 8 -7 15 -15 15 -8 0 -15
-7 -15 -15z"/>
<path d="M970 1765 c0 -8 7 -15 15 -15 8 0 15 7 15 15 0 8 -7 15 -15 15 -8 0
-15 -7 -15 -15z"/>
<path d="M1880 1447 c0 -7 7 -22 15 -33 14 -18 14 -17 15 14 0 22 -5 32 -15
32 -8 0 -15 -6 -15 -13z"/>
<path d="M1860 1345 c0 -8 -4 -15 -10 -15 -5 0 -10 -7 -10 -15 0 -8 5 -15 10
-15 6 0 10 7 10 15 0 8 5 15 10 15 6 0 10 7 10 15 0 8 -4 15 -10 15 -5 0 -10
-7 -10 -15z"/>
<path d="M1416 1334 c-9 -22 -8 -24 9 -24 8 0 15 -4 15 -10 0 -15 33 -50 47
-50 7 0 13 7 13 15 0 8 -7 15 -15 15 -8 0 -15 7 -15 15 0 8 -7 15 -15 15 -8 0
-15 9 -15 20 0 24 -15 27 -24 4z"/>
<path d="M1780 1266 c0 -11 -23 -13 -130 -9 -126 5 -130 5 -130 -15 0 -20 4
-20 126 -15 106 4 128 7 145 24 23 23 24 29 4 29 -8 0 -15 -6 -15 -14z"/>
<path d="M1440 1030 c0 -5 -7 -10 -16 -10 -26 0 -9 -25 19 -28 23 -3 27 0 27
22 0 16 -6 26 -15 26 -8 0 -15 -4 -15 -10z"/>
<path d="M1810 770 c0 -5 7 -10 15 -10 8 0 15 5 15 10 0 6 -7 10 -15 10 -8 0
-15 -4 -15 -10z"/>
<path d="M1390 615 c0 -8 5 -15 10 -15 6 0 10 7 10 15 0 8 -4 15 -10 15 -5 0
-10 -7 -10 -15z"/>
<path d="M1650 615 c0 -8 5 -15 10 -15 6 0 10 7 10 15 0 8 -4 15 -10 15 -5 0
-10 -7 -10 -15z"/>
<path d="M1550 505 c0 -8 5 -15 10 -15 6 0 10 7 10 15 0 8 -4 15 -10 15 -5 0
-10 -7 -10 -15z"/>
<path d="M1500 455 c0 -8 5 -15 10 -15 6 0 10 7 10 15 0 8 -4 15 -10 15 -5 0
-10 -7 -10 -15z"/>
<path d="M1440 405 c0 -8 7 -15 15 -15 8 0 15 7 15 15 0 8 -7 15 -15 15 -8 0
-15 -7 -15 -15z"/>
<path d="M760 1555 c0 -8 7 -15 15 -15 8 0 15 7 15 15 0 8 -7 15 -15 15 -8 0
-15 -7 -15 -15z"/>
<path d="M1440 1555 c0 -8 7 -15 15 -15 8 0 15 7 15 15 0 8 -7 15 -15 15 -8 0
-15 -7 -15 -15z"/>
<path d="M1020 1185 c0 -8 7 -15 15 -15 8 0 15 7 15 15 0 8 -7 15 -15 15 -8 0
-15 -7 -15 -15z"/>
<path d="M810 1135 c0 -8 7 -15 15 -15 8 0 15 7 15 15 0 8 -7 15 -15 15 -8 0
-15 -7 -15 -15z"/>
<path d="M920 1135 c0 -8 7 -15 15 -15 8 0 15 7 15 15 0 8 -7 15 -15 15 -8 0
-15 -7 -15 -15z"/>
<path d="M970 1135 c0 -8 7 -15 15 -15 8 0 15 7 15 15 0 8 -7 15 -15 15 -8 0
-15 -7 -15 -15z"/>
<path d="M1020 1135 c0 -8 7 -15 15 -15 8 0 15 7 15 15 0 8 -7 15 -15 15 -8 0
-15 -7 -15 -15z"/>
<path d="M760 1080 c0 -5 -7 -10 -15 -10 -21 0 -19 -12 5 -33 24 -20 40 -22
40 -4 0 8 11 19 25 25 14 6 25 16 25 22 0 14 -27 12 -34 -2 -5 -10 -7 -10 -12
0 -7 14 -34 16 -34 2z"/>
<path d="M920 1074 c0 -17 22 -14 28 4 2 7 -3 12 -12 12 -9 0 -16 -7 -16 -16z"/>
<path d="M972 1079 c2 -6 8 -10 13 -10 5 0 11 4 13 10 2 6 -4 11 -13 11 -9 0
-15 -5 -13 -11z"/>
<path d="M1020 1074 c0 -17 22 -14 28 4 2 7 -3 12 -12 12 -9 0 -16 -7 -16 -16z"/>
<path d="M710 1035 c0 -8 5 -15 10 -15 6 0 10 7 10 15 0 8 -4 15 -10 15 -5 0
-10 -7 -10 -15z"/>
<path d="M810 1035 c0 -8 7 -15 15 -15 8 0 15 7 15 15 0 8 -7 15 -15 15 -8 0
-15 -7 -15 -15z"/>
<path d="M860 1035 c0 -8 -4 -15 -10 -15 -18 0 -10 -21 19 -51 16 -16 34 -29
40 -29 6 0 11 -7 11 -15 0 -8 7 -15 15 -15 8 0 15 7 15 15 0 8 -7 15 -15 15
-8 0 -15 7 -15 15 0 8 -5 15 -11 15 -6 0 -17 6 -25 14 -16 17 -19 36 -4 36 6
0 10 7 10 15 0 8 -7 15 -15 15 -8 0 -15 -7 -15 -15z"/>
<path d="M920 1036 c0 -9 7 -16 16 -16 17 0 14 22 -4 28 -7 2 -12 -3 -12 -12z"/>
<path d="M970 1035 c0 -8 7 -15 15 -15 8 0 15 7 15 15 0 8 -7 15 -15 15 -8 0
-15 -7 -15 -15z"/>
<path d="M1020 1035 c0 -8 7 -15 15 -15 8 0 15 7 15 15 0 8 -7 15 -15 15 -8 0
-15 -7 -15 -15z"/>
<path d="M710 980 c0 -5 5 -10 10 -10 6 0 10 -7 10 -15 0 -8 -4 -15 -10 -15
-5 0 -10 -7 -10 -15 0 -8 5 -15 10 -15 6 0 10 -7 10 -15 0 -8 7 -15 15 -15 11
0 15 -11 15 -40 0 -22 3 -40 6 -40 10 0 74 70 74 81 0 6 -4 8 -8 5 -8 -4 -42
27 -42 39 0 12 34 43 42 39 4 -3 8 2 8 10 0 19 -26 21 -34 4 -5 -10 -7 -10
-12 0 -7 14 -34 16 -34 2 0 -5 -7 -10 -15 -10 -8 0 -15 5 -15 10 0 6 -4 10
-10 10 -5 0 -10 -4 -10 -10z m70 -30 c0 -5 -4 -10 -10 -10 -5 0 -10 -7 -10
-15 0 -8 -7 -15 -15 -15 -8 0 -15 7 -15 15 0 8 7 15 15 15 8 0 15 5 15 10 0 6
5 10 10 10 6 0 10 -4 10 -10z m30 -80 c0 -5 -4 -10 -10 -10 -5 0 -10 5 -10 10
0 6 5 10 10 10 6 0 10 -4 10 -10z"/>
<path d="M810 925 c0 -8 7 -15 15 -15 8 0 15 7 15 15 0 8 -7 15 -15 15 -8 0
-15 -7 -15 -15z"/>
<path d="M860 925 c0 -8 7 -15 15 -15 8 0 15 7 15 15 0 8 -7 15 -15 15 -8 0
-15 -7 -15 -15z"/>
<path d="M970 925 c0 -8 7 -15 15 -15 8 0 15 7 15 15 0 8 -7 15 -15 15 -8 0
-15 -7 -15 -15z"/>
<path d="M1020 925 c0 -8 7 -15 15 -15 8 0 15 7 15 15 0 8 -7 15 -15 15 -8 0
-15 -7 -15 -15z"/>
<path d="M920 876 c0 -9 7 -16 16 -16 17 0 14 22 -4 28 -7 2 -12 -3 -12 -12z"/>
<path d="M810 815 c0 -8 7 -15 15 -15 8 0 15 7 15 15 0 8 -7 15 -15 15 -8 0
-15 -7 -15 -15z"/>
<path d="M862 818 c6 -18 28 -21 28 -4 0 9 -7 16 -16 16 -9 0 -14 -5 -12 -12z"/>
<path d="M182 1609 c2 -6 8 -10 13 -10 5 0 11 4 13 10 2 6 -4 11 -13 11 -9 0
-15 -5 -13 -11z"/>
<path d="M240 1605 c0 -8 5 -15 10 -15 6 0 10 7 10 15 0 8 -4 15 -10 15 -5 0
-10 -7 -10 -15z"/>
<path d="M240 1555 c0 -8 5 -15 10 -15 6 0 10 7 10 15 0 8 -4 15 -10 15 -5 0
-10 -7 -10 -15z"/>
<path d="M187 1454 c-8 -8 1 -24 14 -24 5 0 9 7 9 15 0 15 -12 20 -23 9z"/>
<path d="M236 1445 c4 -8 10 -15 15 -15 5 0 9 7 9 15 0 8 -7 15 -15 15 -9 0
-12 -6 -9 -15z"/>
<path d="M290 1395 c0 -8 5 -15 10 -15 6 0 10 7 10 15 0 8 -4 15 -10 15 -5 0
-10 -7 -10 -15z"/>
<path d="M240 1340 c0 -5 5 -10 10 -10 6 0 10 5 10 10 0 6 -4 10 -10 10 -5 0
-10 -4 -10 -10z"/>
<path d="M340 1295 c0 -8 7 -15 15 -15 8 0 15 7 15 15 0 8 -7 15 -15 15 -8 0
-15 -7 -15 -15z"/>
<path d="M180 1240 c0 -5 7 -10 15 -10 8 0 15 5 15 10 0 6 -7 10 -15 10 -8 0
-15 -4 -15 -10z"/>
<path d="M80 1185 c0 -8 7 -15 15 -15 8 0 15 7 15 15 0 8 -7 15 -15 15 -8 0
-15 -7 -15 -15z"/>
<path d="M140 1185 c0 -8 5 -15 10 -15 6 0 10 7 10 15 0 8 -4 15 -10 15 -5 0
-10 -7 -10 -15z"/>
<path d="M180 1185 c0 -8 7 -15 15 -15 8 0 15 7 15 15 0 8 -7 15 -15 15 -8 0
-15 -7 -15 -15z"/>
<path d="M240 1185 c0 -8 5 -15 10 -15 6 0 10 7 10 15 0 8 -4 15 -10 15 -5 0
-10 -7 -10 -15z"/>
<path d="M290 1185 c0 -8 7 -15 15 -15 8 0 15 7 15 15 0 8 -7 15 -15 15 -8 0
-15 -7 -15 -15z"/>
<path d="M340 1185 c0 -8 7 -15 15 -15 8 0 15 7 15 15 0 8 -7 15 -15 15 -8 0
-15 -7 -15 -15z"/>
<path d="M290 1136 c0 -9 7 -16 16 -16 9 0 14 5 12 12 -6 18 -28 21 -28 4z"/>
<path d="M340 1135 c0 -8 7 -15 15 -15 8 0 15 7 15 15 0 8 -7 15 -15 15 -8 0
-15 -7 -15 -15z"/>
<path d="M240 1074 c0 -8 5 -12 10 -9 6 3 10 10 10 16 0 5 -4 9 -10 9 -5 0
-10 -7 -10 -16z"/>
<path d="M292 1079 c2 -6 8 -10 13 -10 5 0 11 4 13 10 2 6 -4 11 -13 11 -9 0
-15 -5 -13 -11z"/>
<path d="M340 1080 c0 -5 7 -10 15 -10 8 0 15 5 15 10 0 6 -7 10 -15 10 -8 0
-15 -4 -15 -10z"/>
<path d="M30 1035 c0 -8 5 -15 10 -15 6 0 10 7 10 15 0 8 -4 15 -10 15 -5 0
-10 -7 -10 -15z"/>
<path d="M137 1044 c-8 -8 1 -24 14 -24 5 0 9 7 9 15 0 15 -12 20 -23 9z"/>
<path d="M240 1035 c0 -8 5 -15 10 -15 6 0 10 7 10 15 0 8 -4 15 -10 15 -5 0
-10 -7 -10 -15z"/>
<path d="M340 1035 c0 -8 7 -15 15 -15 8 0 15 7 15 15 0 8 -7 15 -15 15 -8 0
-15 -7 -15 -15z"/>
<path d="M82 979 c2 -6 8 -10 13 -10 5 0 11 4 13 10 2 6 -4 11 -13 11 -9 0
-15 -5 -13 -11z"/>
<path d="M182 978 c6 -18 28 -21 28 -4 0 9 -7 16 -16 16 -9 0 -14 -5 -12 -12z"/>
<path d="M240 975 c0 -8 5 -15 10 -15 6 0 10 7 10 15 0 8 -4 15 -10 15 -5 0
-10 -7 -10 -15z"/>
<path d="M290 980 c0 -5 5 -10 10 -10 6 0 10 5 10 10 0 6 -4 10 -10 10 -5 0
-10 -4 -10 -10z"/>
<path d="M340 980 c0 -5 7 -10 15 -10 8 0 15 5 15 10 0 6 -7 10 -15 10 -8 0
-15 -4 -15 -10z"/>
<path d="M400 980 c0 -5 5 -10 10 -10 6 0 10 5 10 10 0 6 -4 10 -10 10 -5 0
-10 -4 -10 -10z"/>
<path d="M30 925 c0 -8 5 -15 10 -15 6 0 10 7 10 15 0 8 -4 15 -10 15 -5 0
-10 -7 -10 -15z"/>
<path d="M240 925 c0 -8 5 -15 10 -15 6 0 10 7 10 15 0 8 -4 15 -10 15 -5 0
-10 -7 -10 -15z"/>
<path d="M290 925 c0 -8 7 -15 15 -15 8 0 15 7 15 15 0 8 -7 15 -15 15 -8 0
-15 -7 -15 -15z"/>
<path d="M340 925 c0 -8 7 -15 15 -15 8 0 15 7 15 15 0 8 -7 15 -15 15 -8 0
-15 -7 -15 -15z"/>
<path d="M400 925 c0 -8 5 -15 10 -15 6 0 10 7 10 15 0 8 -4 15 -10 15 -5 0
-10 -7 -10 -15z"/>
<path d="M87 883 c-12 -11 -8 -23 8 -23 8 0 15 7 15 15 0 16 -12 20 -23 8z"/>
<path d="M140 875 c0 -8 5 -15 10 -15 6 0 10 7 10 15 0 8 -4 15 -10 15 -5 0
-10 -7 -10 -15z"/>
<path d="M187 883 c-12 -11 -8 -23 8 -23 8 0 15 7 15 15 0 16 -12 20 -23 8z"/>
<path d="M400 877 c0 -9 -7 -17 -15 -17 -8 0 -15 -7 -15 -15 0 -8 -7 -15 -15
-15 -8 0 -15 -7 -15 -15 0 -8 7 -15 15 -15 8 0 15 7 15 15 0 8 7 15 15 15 8 0
15 -7 15 -15 0 -8 5 -15 10 -15 6 0 10 7 10 15 0 8 -4 15 -10 15 -14 0 -12 27
3 33 10 4 10 7 0 18 -11 11 -13 10 -13 -4z"/>
<path d="M30 814 c0 -17 22 -14 28 4 2 7 -3 12 -12 12 -9 0 -16 -7 -16 -16z"/>
<path d="M80 815 c0 -8 7 -15 15 -15 8 0 15 7 15 15 0 8 -7 15 -15 15 -8 0
-15 -7 -15 -15z"/>
<path d="M137 824 c-8 -8 1 -24 14 -24 5 0 9 7 9 15 0 15 -12 20 -23 9z"/>
<path d="M182 818 c6 -18 28 -21 28 -4 0 9 -7 16 -16 16 -9 0 -14 -5 -12 -12z"/>
<path d="M290 814 c0 -17 22 -14 28 4 2 7 -3 12 -12 12 -9 0 -16 -7 -16 -16z"/>
<path d="M240 780 c0 -11 5 -20 10 -20 6 0 10 9 10 20 0 11 -4 20 -10 20 -5 0
-10 -9 -10 -20z"/>
<path d="M80 770 c0 -5 7 -10 15 -10 8 0 15 5 15 10 0 6 -7 10 -15 10 -8 0
-15 -4 -15 -10z"/>
<path d="M135 770 c-3 -5 1 -10 9 -10 9 0 16 -7 16 -15 0 -8 5 -15 10 -15 14
0 12 -28 -2 -33 -8 -2 -9 -8 -4 -13 5 -5 11 -4 13 4 3 6 11 12 19 12 8 0 14 7
14 15 0 8 -7 15 -15 15 -8 0 -15 7 -15 15 0 8 7 15 15 15 8 0 15 5 15 10 0 14
-27 12 -34 -2 -5 -10 -7 -10 -12 0 -7 15 -21 16 -29 2z"/>
<path d="M290 770 c0 -5 7 -10 15 -10 8 0 15 5 15 10 0 6 -7 10 -15 10 -8 0
-15 -4 -15 -10z"/>
<path d="M30 715 c0 -8 7 -15 15 -15 8 0 15 7 15 15 0 8 -7 15 -15 15 -8 0
-15 -7 -15 -15z"/>
<path d="M80 719 c0 -14 -25 -39 -39 -39 -6 0 -11 -7 -11 -15 0 -8 7 -15 15
-15 8 0 15 5 15 11 0 6 6 17 14 25 8 8 19 14 25 14 6 0 11 7 11 15 0 8 -7 15
-15 15 -8 0 -15 -5 -15 -11z"/>
<path d="M290 714 c0 -9 5 -14 12 -12 18 6 21 28 4 28 -9 0 -16 -7 -16 -16z"/>
<path d="M2070 345 c0 -8 7 -15 15 -15 8 0 15 7 15 15 0 8 -7 15 -15 15 -8 0
-15 -7 -15 -15z"/>
<path d="M2070 295 c0 -8 7 -15 15 -15 8 0 15 7 15 15 0 8 -7 15 -15 15 -8 0
-15 -7 -15 -15z"/>
<path d="M2330 245 c0 -8 7 -15 15 -15 8 0 15 7 15 15 0 8 -7 15 -15 15 -8 0
-15 -7 -15 -15z"/>
</g>
</svg>
