<svg width="32" height="32" viewBox="0 0 32 32" fill="none" xmlns="http://www.w3.org/2000/svg">
<path d="M16.0002 9.33333C17.4729 9.33333 18.6668 8.13943 18.6668 6.66667C18.6668 5.19391 17.4729 4 16.0002 4C14.5274 4 13.3335 5.19391 13.3335 6.66667C13.3335 8.13943 14.5274 9.33333 16.0002 9.33333Z" stroke="black" stroke-width="2.66667" stroke-linecap="round" stroke-linejoin="round"/>
<path d="M26.6667 16.6667V23C26.6754 23.1481 26.6503 23.2963 26.5933 23.4333C26.5044 23.6478 26.339 23.8217 26.1293 23.9213L18.8467 27.3613C17.9566 27.7818 16.9844 27.9999 16 27.9999C15.0156 27.9999 14.0434 27.7818 13.1533 27.3613L5.87067 23.9213C5.69881 23.8399 5.5557 23.7082 5.46024 23.5437C5.36478 23.3792 5.32146 23.1896 5.33601 23L5.33334 16.6667" stroke="black" stroke-width="2.66667" stroke-linecap="round" stroke-linejoin="round"/>
<path d="M5.90805 16.288L13.42 13.1787C15.0722 12.4957 16.9279 12.4957 18.58 13.1787L26.092 16.288C26.2585 16.356 26.4014 16.4711 26.5033 16.6193C26.6051 16.7674 26.6615 16.942 26.6655 17.1218C26.6694 17.3015 26.6208 17.4785 26.5256 17.6309C26.4303 17.7834 26.2926 17.9047 26.1294 17.98L18.8467 21.3707C17.955 21.7853 16.9834 22.0001 16 22.0001C15.0166 22.0001 14.0451 21.7853 13.1534 21.3707L5.87071 17.98C5.70657 17.9053 5.56794 17.7842 5.47201 17.6315C5.37608 17.4788 5.32706 17.3013 5.33103 17.121C5.33501 16.9407 5.3918 16.7656 5.49437 16.6173C5.59694 16.469 5.74077 16.354 5.90805 16.2867V16.288Z" stroke="black" stroke-width="2.66667" stroke-linecap="round" stroke-linejoin="round"/>
<path d="M16 9.33333V17.3333" stroke="black" stroke-width="2.66667" stroke-linecap="round" stroke-linejoin="round"/>
</svg>
