<svg width="32" height="32" viewBox="0 0 32 32" fill="none" xmlns="http://www.w3.org/2000/svg">
<g clip-path="url(#clip0_76_83)">
<path d="M26.3907 22.1C26.3907 27.1027 22.488 32.0013 16.0667 32.0013C9.06804 32.0013 5.60938 27.0547 5.60938 20.948C5.60938 14.0013 10.7987 3.67867 16.276 0.0853329C16.3595 0.0316363 16.4565 0.00250223 16.5557 0.00125744C16.655 1.26566e-05 16.7526 0.0267073 16.8374 0.0782932C16.9222 0.129879 16.9908 0.204277 17.0354 0.292991C17.0799 0.381706 17.0987 0.481161 17.0894 0.58C16.7821 3.65352 17.5832 6.73569 19.348 9.27067C20.044 10.3307 20.804 11.2413 21.6987 12.4067C22.952 14.0427 23.8814 14.948 25.224 17.5293L25.244 17.5667C25.999 18.9583 26.3932 20.5168 26.3907 22.1V22.1Z" fill="black"/>
</g>
<defs>
<clipPath id="clip0_76_83">
<rect width="32" height="32" fill="white"/>
</clipPath>
</defs>
</svg>
