<svg width="32" height="32" viewBox="0 0 32 32" fill="none" xmlns="http://www.w3.org/2000/svg">
<g clip-path="url(#clip0_76_79)">
<path fill-rule="evenodd" clip-rule="evenodd" d="M15.1787 5.58267C15.6867 5.73626 16.2276 5.74458 16.7401 5.60667L25.1747 20.516C24.7842 20.8922 24.5098 21.3725 24.3841 21.9H7.61339C7.47844 21.3462 7.18133 20.8453 6.76006 20.4613L15.1774 5.58267H15.1787ZM13.9507 4.82934C13.9747 4.85601 14.0014 4.88134 14.0267 4.90667L5.59072 19.82C5.55094 19.8094 5.51093 19.7996 5.47072 19.7907V12.208C5.85427 12.1222 6.21573 11.9574 6.53207 11.7242C6.84841 11.491 7.11269 11.1944 7.30806 10.8533C7.50263 10.5142 7.62551 10.1388 7.66908 9.75029C7.71266 9.36178 7.67601 8.96845 7.56139 8.59467L13.9507 4.83067V4.82934ZM18.7107 3.71601C18.8459 3.29174 18.8795 2.84167 18.8091 2.40202C18.7386 1.96236 18.5659 1.54538 18.3049 1.18463C18.0439 0.823873 17.7018 0.529408 17.3063 0.32492C16.9108 0.120432 16.4727 0.0116289 16.0275 0.00726268C15.5822 0.00289641 15.1422 0.103089 14.7427 0.299781C14.3432 0.496473 13.9955 0.784174 13.7275 1.13974C13.4595 1.49531 13.2786 1.90882 13.1995 2.34701C13.1204 2.7852 13.1453 3.23584 13.2721 3.66267L6.87872 7.43067C6.57191 7.11602 6.1963 6.87683 5.78141 6.7319C5.36651 6.58697 4.92366 6.54026 4.48766 6.59544C4.05166 6.65061 3.63441 6.80618 3.2687 7.0499C2.90299 7.29361 2.59881 7.61884 2.38006 8.00001C2.16158 8.38165 2.03401 8.80851 2.00726 9.24745C1.9805 9.68639 2.05527 10.1256 2.22577 10.5309C2.39627 10.9363 2.65791 11.2969 2.99036 11.5847C3.32282 11.8726 3.71714 12.0799 4.14272 12.1907V19.8107C3.71807 19.9225 3.32484 20.1305 2.99345 20.4187C2.66206 20.7068 2.40141 21.0673 2.23165 21.4723C2.06189 21.8773 1.98759 22.3159 2.01448 22.7542C2.04137 23.1926 2.16873 23.6188 2.38672 24C2.60517 24.3803 2.90871 24.7047 3.27355 24.9481C3.63838 25.1914 4.05461 25.3469 4.48961 25.4024C4.9246 25.458 5.36655 25.412 5.78082 25.2682C6.19508 25.1243 6.57041 24.8865 6.87739 24.5733L13.2707 28.3413C13.1943 28.6034 13.1557 28.875 13.1561 29.148C13.1574 30.7253 14.4267 32 16.0001 32C16.4553 31.999 16.9036 31.889 17.3076 31.6792C17.7116 31.4695 18.0595 31.166 18.3221 30.7942C18.5848 30.4224 18.7546 29.9931 18.8173 29.5422C18.88 29.0914 18.8339 28.632 18.6827 28.2027L25.0174 24.4693C25.316 24.8068 25.6907 25.0683 26.1104 25.2322C26.5302 25.3961 26.9829 25.4576 27.4312 25.4118C27.8794 25.3659 28.3103 25.2139 28.6882 24.9684C29.066 24.7229 29.38 24.391 29.6041 24C29.8287 23.6126 29.9589 23.1776 29.984 22.7305C30.0092 22.2833 29.9287 21.8365 29.7489 21.4263C29.5692 21.0161 29.2954 20.654 28.9496 20.3693C28.6038 20.0847 28.1958 19.8855 27.7587 19.788V12.2147C28.1962 12.117 28.6046 11.9179 28.9511 11.6335C29.2976 11.3491 29.5724 10.9873 29.7535 10.5773C29.9346 10.1673 30.0169 9.72041 29.9937 9.27276C29.9705 8.82511 29.8425 8.38915 29.6201 8.00001C29.3986 7.61555 29.0903 7.28822 28.7198 7.0442C28.3493 6.80018 27.9268 6.64623 27.4861 6.59467C27.0455 6.5431 26.5989 6.59534 26.182 6.74722C25.7651 6.89909 25.3896 7.14639 25.0854 7.46934L18.7121 3.71467L18.7107 3.71601ZM17.9121 4.96534L18.0121 4.86934L24.4227 8.64667C24.3182 9.01371 24.2883 9.39796 24.3348 9.77674C24.3813 10.1555 24.5032 10.5211 24.6934 10.852C24.8797 11.1786 25.1294 11.4648 25.4277 11.6938C25.726 11.9227 26.067 12.0898 26.4307 12.1853V19.812C26.3959 19.8215 26.3612 19.8318 26.3267 19.8427L17.9121 4.96534V4.96534ZM24.4387 23.4427L18.0734 27.1947C17.8081 26.9108 17.4873 26.6845 17.1309 26.5299C16.7744 26.3753 16.3899 26.2957 16.0014 26.296C15.1934 26.296 14.4654 26.632 13.9481 27.1733L7.56806 23.4133C7.58406 23.3613 7.59872 23.3093 7.61072 23.256H24.3867C24.4027 23.3187 24.4201 23.3813 24.4401 23.4427H24.4387Z" fill="black"/>
</g>
<defs>
<clipPath id="clip0_76_79">
<rect width="32" height="32" fill="white"/>
</clipPath>
</defs>
</svg>
