<svg width="32" height="32" viewBox="0 0 32 32" fill="none" xmlns="http://www.w3.org/2000/svg">
<path d="M29.0666 17.3333H26.6666V28H17.3333V23.56L21.0533 19.84L22 20C22.7426 20 23.4548 19.705 23.9799 19.1799C24.505 18.6548 24.8 17.9426 24.8 17.2C24.8 16.4574 24.505 15.7452 23.9799 15.2201C23.4548 14.695 22.7426 14.4 22 14.4C21.2574 14.4 20.5452 14.695 20.0201 15.2201C19.495 15.7452 19.2 16.4574 19.2 17.2L19.3333 18.1467L17.3333 20.1733V12.8667C18.2133 12.3867 18.8 11.4667 18.8 10.4C18.8 9.65739 18.505 8.9452 17.9799 8.42009C17.4548 7.89499 16.7426 7.59999 16 7.59999C15.2574 7.59999 14.5452 7.89499 14.0201 8.42009C13.495 8.9452 13.2 9.65739 13.2 10.4C13.2 11.4667 13.7866 12.3867 14.6666 12.8667V20.1733L12.6666 18.1467L12.8 17.2C12.8 16.4574 12.505 15.7452 11.9799 15.2201C11.4548 14.695 10.7426 14.4 9.99998 14.4C9.25737 14.4 8.54518 14.695 8.02008 15.2201C7.49498 15.7452 7.19998 16.4574 7.19998 17.2C7.19998 17.9426 7.49498 18.6548 8.02008 19.1799C8.54518 19.705 9.25737 20 9.99998 20L10.9466 19.84L14.6666 23.56V28H5.33331V17.3333H2.99998C2.43998 17.3333 1.89331 17.3333 1.89331 17.0533C1.90664 16.76 2.46664 16.2 3.03998 15.6267L14.6666 3.99999C15.1066 3.55999 15.56 3.10666 16 3.10666C16.44 3.10666 16.8933 3.55999 17.3333 3.99999L22.6666 9.33333V7.99999H25.3333V12L29.04 15.7067C29.5733 16.24 30.12 16.7867 30.1333 17.0667C30.1333 17.3333 29.6 17.3333 29.0666 17.3333V17.3333ZM9.99998 16C10.3182 16 10.6235 16.1264 10.8485 16.3515C11.0735 16.5765 11.2 16.8817 11.2 17.2C11.2 17.5183 11.0735 17.8235 10.8485 18.0485C10.6235 18.2736 10.3182 18.4 9.99998 18.4C9.68172 18.4 9.37649 18.2736 9.15145 18.0485C8.92641 17.8235 8.79998 17.5183 8.79998 17.2C8.79998 16.8817 8.92641 16.5765 9.15145 16.3515C9.37649 16.1264 9.68172 16 9.99998 16V16ZM22 16C22.6666 16 23.2 16.5333 23.2 17.2C23.2 17.8667 22.6666 18.4 22 18.4C21.6817 18.4 21.3765 18.2736 21.1514 18.0485C20.9264 17.8235 20.8 17.5183 20.8 17.2C20.8 16.8817 20.9264 16.5765 21.1514 16.3515C21.3765 16.1264 21.6817 16 22 16V16ZM16 9.19999C16.6666 9.19999 17.2 9.73333 17.2 10.4C17.2 11.0667 16.6666 11.6 16 11.6C15.3333 11.6 14.8 11.0667 14.8 10.4C14.8 9.73333 15.3333 9.19999 16 9.19999Z" fill="black"/>
</svg>
