<svg width="32" height="32" viewBox="0 0 32 32" fill="none" xmlns="http://www.w3.org/2000/svg">
<path d="M5.33337 8H7.11115V9.77778H5.33337V8Z" fill="black"/>
<path d="M8.88892 8H21.3334V9.77778H8.88892V8Z" fill="black"/>
<path d="M5.33337 15.1111H7.11115V16.8889H5.33337V15.1111Z" fill="black"/>
<path d="M8.88892 15.1111H21.3334V16.8889H8.88892V15.1111Z" fill="black"/>
<path d="M28.4445 4.44444H3.55561C3.08411 4.44444 2.63193 4.63175 2.29853 4.96514C1.96513 5.29854 1.77783 5.75073 1.77783 6.22222V25.7778C1.77783 26.2493 1.96513 26.7015 2.29853 27.0349C2.63193 27.3683 3.08411 27.5556 3.55561 27.5556H28.4445C28.916 27.5556 29.3682 27.3683 29.7016 27.0349C30.035 26.7015 30.2223 26.2493 30.2223 25.7778V6.22222C30.2223 5.75073 30.035 5.29854 29.7016 4.96514C29.3682 4.63175 28.916 4.44444 28.4445 4.44444V4.44444ZM3.55561 6.22222H28.4445V11.5556H3.55561V6.22222ZM3.55561 13.3333H28.4445V18.6667H3.55561V13.3333ZM3.55561 25.7778V20.4444H28.4445V25.7778H3.55561Z" fill="black"/>
<path d="M5.33337 22.2222H7.11115V24H5.33337V22.2222Z" fill="black"/>
<path d="M8.88892 22.2222H21.3334V24H8.88892V22.2222Z" fill="black"/>
</svg>
