<svg width="32" height="32" viewBox="0 0 32 32" fill="none" xmlns="http://www.w3.org/2000/svg">
<g clip-path="url(#clip0_92_123)">
<path d="M14.952 0.0080446C14.8827 0.0147113 14.664 0.0373779 14.4667 0.0520446C9.92267 0.462711 5.66667 2.91471 2.968 6.68404C1.47773 8.75301 0.50896 11.1512 0.144 13.6747C0.016 14.5547 0 14.8134 0 16.0054C0 17.1974 0.016 17.4574 0.144 18.336C1.01333 24.3454 5.29067 29.3934 11.0893 31.264C12.128 31.5987 13.2227 31.8267 14.4667 31.9654C14.952 32.0187 17.048 32.0187 17.5333 31.9654C19.6813 31.7267 21.5027 31.1947 23.2973 30.2787C23.5733 30.1387 23.6267 30.1 23.5893 30.0694C23.5627 30.0507 22.3907 28.4774 20.9827 26.576L18.424 23.1187L15.2187 18.3734C14.1522 16.7862 13.0757 15.2057 11.9893 13.632C11.9773 13.628 11.9653 15.736 11.9587 18.312C11.9493 22.8187 11.9453 23 11.8893 23.1067C11.8347 23.2312 11.7373 23.332 11.6147 23.3907C11.5147 23.4414 11.428 23.4507 10.9547 23.4507H10.4133L10.2693 23.36C10.1802 23.3038 10.1079 23.2246 10.06 23.1307L9.99333 22.9907L10 16.7187L10.0093 10.444L10.1067 10.3214C10.1722 10.2447 10.2507 10.1801 10.3387 10.1307C10.4667 10.068 10.516 10.0627 11.0587 10.0627C11.696 10.0627 11.8027 10.0867 11.968 10.268C12.0147 10.3187 13.7507 12.9347 15.828 16.084L22.14 25.6467L24.6733 29.484L24.8027 29.4C26.0219 28.5895 27.1272 27.6196 28.0893 26.516C30.1056 24.2084 31.4134 21.3683 31.856 18.336C31.984 17.456 32 17.1974 32 16.0054C32 14.8134 31.984 14.5547 31.856 13.6747C30.9867 7.66671 26.7093 2.61738 20.9107 0.746711C19.8269 0.402137 18.711 0.168494 17.58 0.0493779C17.2787 0.0173779 15.212 -0.0172887 14.9533 0.00937793L14.952 0.0080446ZM21.5027 9.68804C21.577 9.72549 21.6432 9.77729 21.6975 9.84045C21.7517 9.90361 21.7929 9.97688 21.8187 10.056C21.8427 10.136 21.8493 11.876 21.8427 15.796L21.8333 21.42L20.8427 19.9L19.848 18.38V14.292C19.848 11.648 19.86 10.1627 19.8787 10.0907C19.9009 10.0074 19.9397 9.92951 19.9929 9.86168C20.0461 9.79384 20.1124 9.73749 20.188 9.69604C20.3173 9.62938 20.364 9.62404 20.8547 9.62404C21.3173 9.62404 21.3987 9.63071 21.5027 9.68671V9.68804Z" fill="black"/>
</g>
<defs>
<clipPath id="clip0_92_123">
<rect width="32" height="32" fill="white"/>
</clipPath>
</defs>
</svg>
