<svg width="32" height="32" viewBox="0 0 32 32" fill="none" xmlns="http://www.w3.org/2000/svg">
<path d="M22.98 28.875C18.933 28.875 17.392 27.817 17.392 26.047C17.3801 25.7552 17.4261 25.464 17.5274 25.19C17.6287 24.9161 17.7832 24.665 17.9821 24.4512C18.181 24.2373 18.4202 24.065 18.6861 23.9441C18.9519 23.8233 19.2391 23.7563 19.531 23.747V23.494C19.0807 23.3935 18.68 23.1384 18.3984 22.7729C18.1169 22.4075 17.9723 21.955 17.99 21.494C17.99 20.252 19.047 19.631 20.197 19.378V19.286C19.5208 18.9945 18.9496 18.5038 18.5594 17.8794C18.1692 17.255 17.9786 16.5265 18.013 15.791C18.013 13.353 19.737 11.721 22.98 11.721C23.6888 11.709 24.3949 11.8099 25.072 12.02V11.629C25.0373 11.3955 25.057 11.1571 25.1296 10.9324C25.2022 10.7077 25.3256 10.5029 25.4903 10.3337C25.655 10.1646 25.8565 10.0357 26.0792 9.95718C26.3018 9.87866 26.5396 9.85259 26.774 9.881H28.636V12.134H26.084V12.456C26.6765 12.7806 27.1655 13.2657 27.4948 13.8556C27.8242 14.4455 27.9805 15.1163 27.946 15.791C27.946 18.205 26.244 19.815 22.979 19.815C22.3594 19.8236 21.7412 19.7541 21.139 19.608C20.9059 19.683 20.7005 19.8258 20.5491 20.0182C20.3976 20.2106 20.3071 20.4438 20.289 20.688C20.289 21.287 20.795 21.585 21.852 21.585H25.072C28.015 21.585 29.28 22.85 29.28 25.012C29.28 27.518 27.578 28.875 22.98 28.875V28.875ZM24.474 24.138H20.381C20.1834 24.2781 20.0234 24.4647 19.9151 24.6813C19.8067 24.8979 19.7535 25.1379 19.76 25.38C19.76 26.3 20.45 26.852 22.29 26.852H23.76C25.67 26.852 26.52 26.369 26.52 25.357C26.52 24.597 25.969 24.137 24.474 24.137V24.138ZM25.141 15.975V15.584C25.141 14.365 24.382 13.744 22.98 13.744C21.578 13.744 20.818 14.364 20.818 15.584V15.974C20.818 17.17 21.577 17.814 22.98 17.814C24.383 17.814 25.14 17.17 25.14 15.974L25.141 15.975Z" fill="black"/>
<path d="M4.60303 24V7.95H11.823C14.79 7.95 16.583 9.95 16.583 12.917C16.583 15.907 14.789 17.884 11.823 17.884H7.63903V24H4.60303ZM7.63903 15.262H11.548C11.7969 15.292 12.0493 15.2661 12.287 15.1864C12.5246 15.1067 12.7415 14.9751 12.922 14.8011C13.1025 14.6272 13.242 14.4152 13.3304 14.1807C13.4188 13.9461 13.4538 13.6948 13.433 13.445V12.387C13.4532 12.1384 13.4175 11.8884 13.3286 11.6553C13.2396 11.4223 13.0996 11.2121 12.9189 11.0402C12.7381 10.8683 12.5212 10.739 12.284 10.6618C12.0468 10.5846 11.7953 10.5614 11.548 10.594H7.63803L7.63903 15.262Z" fill="black"/>
</svg>
