<svg width="32" height="32" viewBox="0 0 32 32" fill="none" xmlns="http://www.w3.org/2000/svg">
<g clip-path="url(#clip0_76_74)">
<path d="M22.1733 22.084C23.3533 21.9613 24.2493 20.9333 24.2093 19.7C24.1893 19.1072 23.9409 18.5451 23.5159 18.1313C23.091 17.7175 22.5224 17.4841 21.9293 17.48H21.8466C20.584 17.52 19.6066 18.5893 19.6466 19.864C19.6893 20.4813 19.9333 21.0147 20.3 21.384C18.9146 24.14 16.7973 26.1533 13.62 27.8387C11.4626 28.9907 9.22263 29.4013 6.98396 29.1133C5.15063 28.8667 3.7253 28.044 2.8293 26.688C1.52663 24.6747 1.4053 22.4947 2.50396 20.316C3.2773 18.7547 4.49996 17.6027 5.2733 17.028C5.11063 16.4933 4.86663 15.588 4.74396 14.9307C-1.16137 19.248 -0.549369 25.0853 1.23996 27.84C2.58396 29.896 5.31196 31.1707 8.32663 31.1707C9.13996 31.1707 9.95463 31.088 10.7693 30.8827C15.9826 29.856 19.932 26.7307 22.172 22.0853L22.1733 22.084ZM29.34 16.9867C26.2453 13.328 21.684 11.3133 16.472 11.3133H15.82C15.6343 10.9432 15.3495 10.6319 14.9973 10.4142C14.6451 10.1964 14.2394 10.0807 13.8253 10.08H13.7426C12.4813 10.1213 11.5026 11.1907 11.544 12.4653C11.584 13.6987 12.6026 14.684 13.824 14.684H13.9066C14.3367 14.6617 14.7519 14.5189 15.1046 14.2718C15.4574 14.0247 15.7335 13.6833 15.9013 13.2867H16.6346C19.7293 13.2867 22.6613 14.1907 25.308 15.9587C27.344 17.316 28.8106 19.0827 29.624 21.2213C30.3173 22.9467 30.2773 24.632 29.544 26.072C28.4026 28.2507 26.4893 29.4427 23.964 29.4427C22.336 29.4427 20.788 28.9493 19.9733 28.5787C19.3871 29.1016 18.7757 29.5955 18.1413 30.0587C19.892 30.8813 21.684 31.3333 23.3946 31.3333C27.304 31.3333 30.1946 29.1547 31.2946 26.976C32.4746 24.592 32.3933 20.4813 29.34 16.9867ZM8.6533 22.7827C8.6933 24.016 9.71196 25.0027 10.9333 25.0027H11.0146C12.2773 24.9627 13.2546 23.8933 13.2146 22.6187C13.1947 22.0259 12.9462 21.4638 12.5213 21.05C12.0963 20.6362 11.5278 20.4028 10.9346 20.3987H10.852C10.7706 20.3987 10.648 20.3987 10.5666 20.4387C8.8973 17.644 8.2053 14.6027 8.4493 11.3133C8.61196 8.84667 9.42663 6.70933 10.852 4.94133C12.0333 3.42133 14.3133 2.68133 15.8613 2.64C20.1773 2.55733 22.0093 7.984 22.132 10.1627C22.6613 10.2853 23.5573 10.5733 24.168 10.7787C23.6786 4.12 19.608 0.666666 15.6973 0.666666C12.0333 0.666666 8.6533 3.33867 7.3093 7.28533C5.43596 12.5467 6.6573 17.6027 8.93863 21.5907C8.73463 21.8787 8.61196 22.3307 8.6533 22.7827V22.7827Z" fill="black"/>
</g>
<defs>
<clipPath id="clip0_76_74">
<rect width="32" height="32" fill="white"/>
</clipPath>
</defs>
</svg>
