<svg width="32" height="32" viewBox="0 0 32 32" fill="none" xmlns="http://www.w3.org/2000/svg">
<g clip-path="url(#clip0_76_77)">
<path d="M10.4946 6.23733C9.55944 6.23525 8.64773 6.52981 7.89059 7.07866C5.93992 8.46666 4.96525 10.98 4.71192 13.3427C4.43992 15.9267 5.01859 18.8973 6.57592 20.86C6.31725 21.62 6.83325 22.4627 7.63325 22.5507C7.9438 22.5888 8.25769 22.5137 8.5173 22.339C8.77692 22.1644 8.96484 21.902 9.04659 21.6C9.30925 20.72 8.47992 19.8107 7.53992 20.0147C6.23059 18.2533 5.81992 15.964 5.95859 13.8107C6.12525 11.7093 6.86925 9.47066 8.60525 8.15066C9.68525 7.348 11.0426 7.32133 12.1386 8.05066C13.6146 9.04 14.4893 10.8933 14.7653 12.624L15.4453 12.8893L16.1799 13.2733C15.9159 10.756 14.7173 8.11866 12.7453 6.908C12.0741 6.47491 11.2933 6.24225 10.4946 6.23733V6.23733ZM23.1813 11.4987C21.7921 11.488 20.4122 11.7255 19.1066 12.2C18.833 12.0486 18.5138 12.0017 18.2083 12.0679C17.9027 12.1341 17.6316 12.309 17.4453 12.56C16.9199 13.2333 17.2293 14.2893 18.0786 14.5533C18.8986 14.8347 19.7986 14.1747 19.7653 13.3293C20.9828 12.9172 22.2664 12.735 23.5506 12.792C25.6506 12.8853 28.4373 13.664 29.7186 15.656C29.8199 15.8147 29.9386 16.1947 30.4133 16.1893C30.5219 16.1868 30.6282 16.1569 30.7223 16.1024C30.8163 16.0479 30.895 15.9704 30.9512 15.8773C31.0073 15.7842 31.039 15.6785 31.0433 15.5698C31.0477 15.4612 31.0245 15.3533 30.9759 15.256C30.2746 13.936 28.9466 12.956 27.4613 12.3307C26.1493 11.7813 24.6679 11.504 23.1813 11.4987ZM8.43459 12.4547C7.82792 12.4507 7.19459 12.8493 7.12925 13.6987C7.14525 15.3427 9.33859 15.472 9.67859 14.0187C12.1946 13.6573 14.8706 14.7973 16.7453 16.308C18.0426 17.3347 19.2146 18.9653 19.5079 20.4187C19.7239 20.5133 20.3213 20.772 20.8439 20.8267C20.6493 18.6427 19.2239 16.692 17.5746 15.324C15.4839 13.5507 12.0773 12.22 9.28392 12.7867C9.05493 12.5703 8.75092 12.4513 8.43592 12.4547H8.43459ZM3.87725 14.9347C2.72259 15.7467 1.67725 16.748 0.963919 17.9773C0.0105859 19.5573 -0.416081 21.6533 0.533253 23.332C1.41325 24.956 3.30925 25.7053 5.07992 25.748C6.10117 25.7761 7.12044 25.6425 8.09992 25.352C10.9053 24.5653 13.9306 22.3893 15.1319 19.536C15.3801 19.4992 15.612 19.3906 15.7992 19.2236C15.9864 19.0565 16.1206 18.8384 16.1853 18.596C16.4519 17.636 15.5679 16.7667 14.6266 17.008C13.7119 17.2413 13.3386 18.3573 13.9306 19.0613C13.1213 20.9133 11.5306 22.3267 9.78125 23.276C7.79059 24.348 5.37325 24.86 3.43725 24.1547C2.19725 23.7493 1.24792 22.648 1.27992 21.2013C1.27992 19.472 2.51192 17.632 4.02925 16.4373C3.87192 15.72 3.88659 15.4507 3.87725 14.9333V14.9347ZM30.6813 16.9747C30.5134 16.9761 30.3476 17.0113 30.1937 17.0782C30.0397 17.1451 29.9008 17.2423 29.7853 17.364C29.3266 17.8 29.2999 18.5667 29.6626 19.028C28.9346 20.1253 27.6519 20.8733 26.3893 21.3027C23.9159 22.12 20.9079 21.9733 18.6586 20.796C18.1804 20.5569 17.7364 20.2546 17.3386 19.8973C17.1506 19.7267 17.0946 19.688 16.9439 19.6467C16.2773 19.5067 15.8999 20.2947 16.3346 20.724C18.0266 22.3093 20.3839 22.9987 22.6599 23.0933C23.5453 23.1253 24.4333 23.0667 25.3039 22.9067C27.4666 22.504 29.7279 21.4307 30.8613 19.5453C31.7133 19.4493 32.2453 18.512 31.8866 17.7533C31.7868 17.5178 31.6185 17.3176 31.4036 17.1787C31.1887 17.0399 30.937 16.9688 30.6813 16.9747V16.9747ZM19.0199 22.9933C17.9133 24.4867 15.4919 24.9267 12.6866 23.9573C12.4333 24.1307 12.2839 24.2427 12.1093 24.3573C11.9359 24.4733 11.7226 24.584 11.2999 24.8453C14.7106 26.2213 18.5586 26.28 20.2853 23.4027C19.8456 23.3294 19.4192 23.1914 19.0199 22.9933V22.9933Z" fill="black"/>
</g>
<defs>
<clipPath id="clip0_76_77">
<rect width="32" height="32" fill="white"/>
</clipPath>
</defs>
</svg>
