<svg width="32" height="32" viewBox="0 0 32 32" fill="none" xmlns="http://www.w3.org/2000/svg">
<g clip-path="url(#clip0_76_77)">
<path d="M10.4947 6.23733C9.55956 6.23525 8.64785 6.52982 7.89071 7.07867C5.94004 8.46667 4.96538 10.98 4.71204 13.3427C4.44004 15.9267 5.01871 18.8973 6.57604 20.86C6.31738 21.62 6.83338 22.4627 7.63338 22.5507C7.94392 22.5888 8.25781 22.5137 8.51743 22.339C8.77704 22.1644 8.96497 21.902 9.04671 21.6C9.30938 20.72 8.48004 19.8107 7.54004 20.0147C6.23071 18.2533 5.82004 15.964 5.95871 13.8107C6.12538 11.7093 6.86938 9.47067 8.60538 8.15067C9.68538 7.348 11.0427 7.32133 12.1387 8.05067C13.6147 9.04 14.4894 10.8933 14.7654 12.624L15.4454 12.8893L16.18 13.2733C15.916 10.756 14.7174 8.11867 12.7454 6.908C12.0742 6.47491 11.2935 6.24225 10.4947 6.23733V6.23733ZM23.1814 11.4987C21.7922 11.488 20.4124 11.7256 19.1067 12.2C18.8332 12.0486 18.514 12.0017 18.2084 12.0679C17.9029 12.1341 17.6317 12.309 17.4454 12.56C16.92 13.2333 17.2294 14.2893 18.0787 14.5533C18.8987 14.8347 19.7987 14.1747 19.7654 13.3293C20.9829 12.9172 22.2665 12.735 23.5507 12.792C25.6507 12.8853 28.4374 13.664 29.7187 15.656C29.82 15.8147 29.9387 16.1947 30.4134 16.1893C30.5221 16.1868 30.6284 16.1569 30.7224 16.1024C30.8164 16.0479 30.8952 15.9705 30.9513 15.8773C31.0074 15.7842 31.0391 15.6785 31.0434 15.5699C31.0478 15.4612 31.0246 15.3533 30.976 15.256C30.2747 13.936 28.9467 12.956 27.4614 12.3307C26.1494 11.7813 24.668 11.504 23.1814 11.4987ZM8.43471 12.4547C7.82804 12.4507 7.19471 12.8493 7.12938 13.6987C7.14538 15.3427 9.33871 15.472 9.67871 14.0187C12.1947 13.6573 14.8707 14.7973 16.7454 16.308C18.0427 17.3347 19.2147 18.9653 19.508 20.4187C19.724 20.5133 20.3214 20.772 20.844 20.8267C20.6494 18.6427 19.224 16.692 17.5747 15.324C15.484 13.5507 12.0774 12.22 9.28404 12.7867C9.05505 12.5703 8.75104 12.4513 8.43604 12.4547H8.43471ZM3.87738 14.9347C2.72271 15.7467 1.67737 16.748 0.964041 17.9773C0.0107079 19.5573 -0.415959 21.6533 0.533375 23.332C1.41337 24.956 3.30938 25.7053 5.08004 25.748C6.10129 25.7761 7.12057 25.6425 8.10004 25.352C10.9054 24.5653 13.9307 22.3893 15.132 19.536C15.3802 19.4992 15.6121 19.3906 15.7993 19.2236C15.9865 19.0565 16.1207 18.8384 16.1854 18.596C16.452 17.636 15.568 16.7667 14.6267 17.008C13.712 17.2413 13.3387 18.3573 13.9307 19.0613C13.1214 20.9133 11.5307 22.3267 9.78138 23.276C7.79071 24.348 5.37338 24.86 3.43738 24.1547C2.19738 23.7493 1.24804 22.648 1.28004 21.2013C1.28004 19.472 2.51204 17.632 4.02938 16.4373C3.87204 15.72 3.88671 15.4507 3.87738 14.9333V14.9347ZM30.6814 16.9747C30.5135 16.9761 30.3477 17.0113 30.1938 17.0782C30.0399 17.1451 29.901 17.2423 29.7854 17.364C29.3267 17.8 29.3 18.5667 29.6627 19.028C28.9347 20.1253 27.652 20.8733 26.3894 21.3027C23.916 22.12 20.908 21.9733 18.6587 20.796C18.1805 20.5569 17.7365 20.2546 17.3387 19.8973C17.1507 19.7267 17.0947 19.688 16.944 19.6467C16.2774 19.5067 15.9 20.2947 16.3347 20.724C18.0267 22.3093 20.384 22.9987 22.66 23.0933C23.5454 23.1253 24.4334 23.0667 25.304 22.9067C27.4667 22.504 29.728 21.4307 30.8614 19.5453C31.7134 19.4493 32.2454 18.512 31.8867 17.7533C31.7869 17.5178 31.6186 17.3176 31.4037 17.1787C31.1888 17.0399 30.9372 16.9688 30.6814 16.9747V16.9747ZM19.02 22.9933C17.9134 24.4867 15.492 24.9267 12.6867 23.9573C12.4334 24.1307 12.284 24.2427 12.1094 24.3573C11.936 24.4733 11.7227 24.584 11.3 24.8453C14.7107 26.2213 18.5587 26.28 20.2854 23.4027C19.8457 23.3294 19.4193 23.1914 19.02 22.9933V22.9933Z" fill="black"/>
</g>
<defs>
<clipPath id="clip0_76_77">
<rect width="32" height="32" fill="white"/>
</clipPath>
</defs>
</svg>
