<svg width="32" height="32" viewBox="0 0 32 32" fill="none" xmlns="http://www.w3.org/2000/svg">
<g clip-path="url(#clip0_76_74)">
<path d="M22.1734 22.084C23.3534 21.9613 24.2494 20.9333 24.2094 19.7C24.1895 19.1072 23.941 18.5451 23.516 18.1313C23.0911 17.7175 22.5225 17.4841 21.9294 17.48H21.8468C20.5841 17.52 19.6068 18.5893 19.6468 19.864C19.6894 20.4813 19.9334 21.0147 20.3001 21.384C18.9148 24.14 16.7974 26.1533 13.6201 27.8387C11.4628 28.9907 9.22275 29.4013 6.98409 29.1133C5.15075 28.8667 3.72542 28.044 2.82942 26.688C1.52675 24.6747 1.40542 22.4947 2.50409 20.316C3.27742 18.7547 4.50009 17.6027 5.27342 17.028C5.11075 16.4933 4.86675 15.588 4.74409 14.9307C-1.16125 19.248 -0.549247 25.0853 1.24009 27.84C2.58409 29.896 5.31209 31.1707 8.32675 31.1707C9.14009 31.1707 9.95475 31.088 10.7694 30.8827C15.9828 29.856 19.9321 26.7307 22.1721 22.0853L22.1734 22.084ZM29.3401 16.9867C26.2454 13.328 21.6841 11.3133 16.4721 11.3133H15.8201C15.6344 10.9432 15.3496 10.6319 14.9974 10.4142C14.6452 10.1964 14.2395 10.0807 13.8254 10.08H13.7428C12.4814 10.1213 11.5028 11.1907 11.5441 12.4653C11.5841 13.6987 12.6028 14.684 13.8241 14.684H13.9068C14.3369 14.6618 14.752 14.5189 15.1048 14.2718C15.4575 14.0247 15.7336 13.6833 15.9014 13.2867H16.6348C19.7294 13.2867 22.6614 14.1907 25.3081 15.9587C27.3441 17.316 28.8108 19.0827 29.6241 21.2213C30.3174 22.9467 30.2774 24.632 29.5441 26.072C28.4028 28.2507 26.4894 29.4427 23.9641 29.4427C22.3361 29.4427 20.7881 28.9493 19.9734 28.5787C19.3872 29.1016 18.7758 29.5955 18.1414 30.0587C19.8921 30.8813 21.6841 31.3333 23.3948 31.3333C27.3041 31.3333 30.1948 29.1547 31.2948 26.976C32.4748 24.592 32.3934 20.4813 29.3401 16.9867ZM8.65342 22.7827C8.69342 24.016 9.71209 25.0027 10.9334 25.0027H11.0148C12.2774 24.9627 13.2548 23.8933 13.2148 22.6187C13.1948 22.0259 12.9463 21.4638 12.5214 21.05C12.0964 20.6362 11.5279 20.4028 10.9348 20.3987H10.8521C10.7708 20.3987 10.6481 20.3987 10.5668 20.4387C8.89742 17.644 8.20542 14.6027 8.44942 11.3133C8.61209 8.84667 9.42675 6.70934 10.8521 4.94134C12.0334 3.42134 14.3134 2.68134 15.8614 2.64001C20.1774 2.55734 22.0094 7.98401 22.1321 10.1627C22.6614 10.2853 23.5574 10.5733 24.1681 10.7787C23.6788 4.12 19.6081 0.666672 15.6974 0.666672C12.0334 0.666672 8.65342 3.33867 7.30942 7.28534C5.43609 12.5467 6.65742 17.6027 8.93875 21.5907C8.73475 21.8787 8.61209 22.3307 8.65342 22.7827V22.7827Z" fill="black"/>
</g>
<defs>
<clipPath id="clip0_76_74">
<rect width="32" height="32" fill="white"/>
</clipPath>
</defs>
</svg>
