<svg width="32" height="32" viewBox="0 0 32 32" fill="none" xmlns="http://www.w3.org/2000/svg">
<g clip-path="url(#clip0_76_39)">
<path d="M9.33327 14.6667H10.6666C11.0202 14.6667 11.3594 14.8071 11.6094 15.0572C11.8595 15.3072 11.9999 15.6464 11.9999 16C11.9999 16.3536 11.8595 16.6928 11.6094 16.9428C11.3594 17.1929 11.0202 17.3333 10.6666 17.3333H9.33327V18.6667C9.33327 19.0203 9.1928 19.3594 8.94275 19.6095C8.6927 19.8595 8.35356 20 7.99994 20C7.64632 20 7.30718 19.8595 7.05713 19.6095C6.80708 19.3594 6.66661 19.0203 6.66661 18.6667V17.3333H5.33327C4.97965 17.3333 4.64051 17.1929 4.39046 16.9428C4.14041 16.6928 3.99994 16.3536 3.99994 16C3.99994 15.6464 4.14041 15.3072 4.39046 15.0572C4.64051 14.8071 4.97965 14.6667 5.33327 14.6667H6.66661V13.3333C6.66661 12.9797 6.80708 12.6406 7.05713 12.3905C7.30718 12.1405 7.64632 12 7.99994 12C8.35356 12 8.6927 12.1405 8.94275 12.3905C9.1928 12.6406 9.33327 12.9797 9.33327 13.3333V14.6667ZM7.99994 8H23.9999C25.3344 7.99997 26.6477 8.33376 27.8202 8.97097C28.9927 9.60818 29.9871 10.5286 30.713 11.6483C31.4389 12.7681 31.8732 14.0516 31.9762 15.3821C32.0793 16.7126 31.8479 18.0477 31.3031 19.2659C30.7583 20.4841 29.9175 21.5467 28.8571 22.3569C27.7968 23.167 26.5506 23.6991 25.232 23.9046C23.9135 24.1101 22.5645 23.9825 21.3079 23.5334C20.0512 23.0843 18.9269 22.328 18.0373 21.3333H13.9626C13.073 22.328 11.9486 23.0843 10.692 23.5334C9.4354 23.9825 8.0864 24.1101 6.76786 23.9046C5.44932 23.6991 4.20312 23.167 3.14276 22.3569C2.08239 21.5467 1.24153 20.4841 0.696753 19.2659C0.151977 18.0477 -0.0794128 16.7126 0.0236548 15.3821C0.126722 14.0516 0.560972 12.7681 1.28686 11.6483C2.01275 10.5286 3.00722 9.60818 4.17972 8.97097C5.35221 8.33376 6.66548 7.99997 7.99994 8V8ZM7.99994 10.6667C7.11025 10.6667 6.2347 10.8892 5.45302 11.3141C4.67133 11.739 4.00835 12.3526 3.52445 13.0992C3.04055 13.8458 2.7511 14.7015 2.68247 15.5886C2.61384 16.4756 2.7682 17.3657 3.13151 18.1779C3.49481 18.99 4.0555 19.6983 4.76253 20.2384C5.46956 20.7784 6.30046 21.133 7.17955 21.2699C8.05865 21.4067 8.95802 21.3215 9.79575 21.0219C10.6335 20.7223 11.383 20.2179 11.9759 19.5547L12.7706 18.6667H19.2293L20.0239 19.5547C20.6169 20.2179 21.3664 20.7223 22.2041 21.0219C23.0419 21.3215 23.9412 21.4067 24.8203 21.2699C25.6994 21.133 26.5303 20.7784 27.2373 20.2384C27.9444 19.6983 28.5051 18.99 28.8684 18.1779C29.2317 17.3657 29.386 16.4756 29.3174 15.5886C29.2488 14.7015 28.9593 13.8458 28.4754 13.0992C27.9915 12.3526 27.3285 11.739 26.5469 11.3141C25.7652 10.8892 24.8896 10.6667 23.9999 10.6667H7.99994ZM23.9999 14.6667C23.6463 14.6667 23.3072 14.5262 23.0571 14.2761C22.8071 14.0261 22.6666 13.687 22.6666 13.3333C22.6666 12.9797 22.8071 12.6406 23.0571 12.3905C23.3072 12.1405 23.6463 12 23.9999 12C24.3536 12 24.6927 12.1405 24.9427 12.3905C25.1928 12.6406 25.3333 12.9797 25.3333 13.3333C25.3333 13.687 25.1928 14.0261 24.9427 14.2761C24.6927 14.5262 24.3536 14.6667 23.9999 14.6667ZM21.3333 17.3333C20.9797 17.3333 20.6405 17.1929 20.3905 16.9428C20.1404 16.6928 19.9999 16.3536 19.9999 16C19.9999 15.6464 20.1404 15.3072 20.3905 15.0572C20.6405 14.8071 20.9797 14.6667 21.3333 14.6667C21.6869 14.6667 22.026 14.8071 22.2761 15.0572C22.5261 15.3072 22.6666 15.6464 22.6666 16C22.6666 16.3536 22.5261 16.6928 22.2761 16.9428C22.026 17.1929 21.6869 17.3333 21.3333 17.3333ZM26.6666 17.3333C26.313 17.3333 25.9738 17.1929 25.7238 16.9428C25.4737 16.6928 25.3333 16.3536 25.3333 16C25.3333 15.6464 25.4737 15.3072 25.7238 15.0572C25.9738 14.8071 26.313 14.6667 26.6666 14.6667C27.0202 14.6667 27.3594 14.8071 27.6094 15.0572C27.8595 15.3072 27.9999 15.6464 27.9999 16C27.9999 16.3536 27.8595 16.6928 27.6094 16.9428C27.3594 17.1929 27.0202 17.3333 26.6666 17.3333ZM23.9999 20C23.6463 20 23.3072 19.8595 23.0571 19.6095C22.8071 19.3594 22.6666 19.0203 22.6666 18.6667C22.6666 18.313 22.8071 17.9739 23.0571 17.7239C23.3072 17.4738 23.6463 17.3333 23.9999 17.3333C24.3536 17.3333 24.6927 17.4738 24.9427 17.7239C25.1928 17.9739 25.3333 18.313 25.3333 18.6667C25.3333 19.0203 25.1928 19.3594 24.9427 19.6095C24.6927 19.8595 24.3536 20 23.9999 20Z" fill="black"/>
</g>
<defs>
<clipPath id="clip0_76_39">
<rect width="32" height="32" fill="white"/>
</clipPath>
</defs>
</svg>
