<svg width="32" height="32" viewBox="0 0 32 32" fill="none" xmlns="http://www.w3.org/2000/svg">
<path fill-rule="evenodd" clip-rule="evenodd" d="M1.5 0C0.6715 0 0 0.671575 0 1.5V30.5C0 31.3285 0.6715 32 1.5 32H30.5C31.3285 32 32 31.3285 32 30.5V1.5C32 0.671575 31.3285 0 30.5 0H1.5ZM18.5655 28.3735V24.867C19.1992 25.4003 19.8875 25.8002 20.6302 26.0667C21.3732 26.3335 22.1235 26.4667 22.8808 26.4667C23.325 26.4667 23.713 26.4265 24.0443 26.3463C24.3758 26.266 24.6525 26.1545 24.8745 26.012C25.0967 25.8695 25.2625 25.7015 25.3717 25.508C25.481 25.3145 25.5355 25.1045 25.5355 24.878C25.5355 24.5713 25.4482 24.2972 25.2732 24.0562C25.0985 23.815 24.86 23.5923 24.5577 23.3878C24.2555 23.1833 23.8968 22.986 23.4818 22.796C23.0665 22.606 22.6188 22.4125 22.138 22.2153C20.9143 21.704 20.0023 21.0793 19.4013 20.3415C18.8005 19.6037 18.5 18.7125 18.5 17.6679C18.5 16.8497 18.6638 16.1466 18.9915 15.5586C19.3193 14.9705 19.7655 14.4866 20.33 14.1067C20.8943 13.7269 21.548 13.4474 22.291 13.2684C23.0338 13.0895 23.8202 13 24.6507 13C25.4665 13 26.1893 13.0493 26.8193 13.1479C27.4493 13.2465 28.03 13.3981 28.5618 13.6027V16.879C28.2995 16.6963 28.0137 16.5356 27.7042 16.3968C27.3945 16.258 27.076 16.143 26.7483 16.0517C26.4205 15.9604 26.0945 15.8928 25.7705 15.8489C25.4463 15.8051 25.1388 15.7832 24.8473 15.7832C24.4468 15.7832 24.0825 15.8216 23.7548 15.8983C23.427 15.975 23.1502 16.0827 22.9245 16.2215C22.6987 16.3603 22.524 16.5265 22.4003 16.7201C22.2763 16.9137 22.2145 17.131 22.2145 17.372C22.2145 17.635 22.2835 17.8706 22.422 18.0788C22.5605 18.287 22.757 18.4842 23.012 18.6705C23.2668 18.8568 23.5765 19.0394 23.9405 19.2184C24.3047 19.3974 24.7163 19.5818 25.175 19.7717C25.8015 20.0347 26.364 20.3142 26.863 20.61C27.3617 20.9059 27.7897 21.24 28.1465 21.6125C28.5035 21.9852 28.7765 22.4107 28.966 22.8892C29.1553 23.3677 29.25 23.9247 29.25 24.5602C29.25 25.4367 29.0842 26.1727 28.753 26.768C28.4215 27.3635 27.9717 27.8455 27.4037 28.2145C26.8355 28.5835 26.1748 28.8482 25.4208 29.009C24.667 29.1697 23.8713 29.25 23.0338 29.25C22.1743 29.25 21.3568 29.177 20.5813 29.0308C19.8055 28.8848 19.1337 28.6655 18.5655 28.3735ZM17.25 16.1386H12.6758V29H9.052V16.1386H4.5V13.25H17.25V16.1386Z" fill="black"/>
</svg>
