<svg width="32" height="32" viewBox="0 0 32 32" fill="none" xmlns="http://www.w3.org/2000/svg">
<path d="M2.66675 13.3333C2.66675 12.6261 2.9477 11.9478 3.4478 11.4477C3.94789 10.9476 4.62617 10.6667 5.33341 10.6667H26.6667C27.374 10.6667 28.0523 10.9476 28.5524 11.4477C29.0525 11.9478 29.3334 12.6261 29.3334 13.3333V22.6667C29.3334 23.3739 29.0525 24.0522 28.5524 24.5523C28.0523 25.0524 27.374 25.3333 26.6667 25.3333H21.5094C21.0489 25.3333 20.5963 25.2141 20.1955 24.9872C19.7948 24.7603 19.4597 24.4335 19.2227 24.0387L17.1427 20.572C17.0242 20.3749 16.8567 20.2117 16.6565 20.0985C16.4562 19.9853 16.2301 19.9258 16.0001 19.9258C15.7701 19.9258 15.5439 19.9853 15.3437 20.0985C15.1435 20.2117 14.976 20.3749 14.8574 20.572L12.7774 24.0387C12.5405 24.4335 12.2053 24.7603 11.8046 24.9872C11.4039 25.2141 10.9512 25.3333 10.4907 25.3333H5.33341C4.62617 25.3333 3.94789 25.0524 3.4478 24.5523C2.9477 24.0522 2.66675 23.3739 2.66675 22.6667V13.3333Z" stroke="black" stroke-width="2.66667" stroke-linecap="round" stroke-linejoin="round"/>
<path d="M5.084 9.04133C5.57092 8.31105 6.23054 7.71224 7.00436 7.298C7.77818 6.88376 8.64228 6.6669 9.52 6.66667H22.4773C23.3553 6.66668 24.2196 6.88343 24.9937 7.29768C25.7678 7.71193 26.4276 8.31087 26.9147 9.04133L28 10.6667H4L5.084 9.04133V9.04133Z" stroke="black" stroke-width="2.66667" stroke-linecap="round" stroke-linejoin="round"/>
</svg>
