<svg width="34" height="32" viewBox="0 0 34 32" fill="none" xmlns="http://www.w3.org/2000/svg">
<title>Github Logo</title>
<path d="M17.0463 0C7.98722 0 0.641235 7.34463 0.641235 16.4051C0.641235 23.6533 5.34179 29.8026 11.86 31.9718C12.6799 32.1237 12.9809 31.6159 12.9809 31.1826C12.9809 30.7914 12.9657 29.4991 12.9586 28.1283C8.39472 29.1207 7.43168 26.1928 7.43168 26.1928C6.68542 24.2966 5.61019 23.7924 5.61019 23.7924C4.12176 22.7742 5.72239 22.7951 5.72239 22.7951C7.36974 22.9108 8.23715 24.4856 8.23715 24.4856C9.70032 26.9936 12.0749 26.2685 13.0111 25.8494C13.1583 24.7891 13.5834 24.0654 14.0526 23.6557C10.4088 23.2409 6.57839 21.8342 6.57839 15.5483C6.57839 13.7572 7.21924 12.2938 8.26867 11.1449C8.09833 10.7317 7.53681 9.06316 8.42759 6.80348C8.42759 6.80348 9.80518 6.36258 12.9402 8.48506C14.2487 8.12158 15.6521 7.9393 17.0463 7.93305C18.4405 7.9393 19.845 8.12158 21.156 8.48506C24.2872 6.36258 25.6629 6.80348 25.6629 6.80348C26.5558 9.06316 25.994 10.7317 25.8237 11.1449C26.8756 12.2938 27.5121 13.7572 27.5121 15.5483C27.5121 21.8492 23.6743 23.2365 20.0213 23.6427C20.6097 24.1518 21.134 25.1501 21.134 26.6807C21.134 28.8757 21.115 30.6423 21.115 31.1826C21.115 31.6192 21.4103 32.1307 22.2418 31.9696C28.7565 29.798 33.4511 23.6508 33.4511 16.4051C33.4511 7.34463 26.1062 0 17.0463 0ZM6.78547 23.3694C6.74934 23.4509 6.62111 23.4753 6.5043 23.4194C6.38531 23.3658 6.31848 23.2547 6.35706 23.173C6.39238 23.089 6.52087 23.0657 6.63959 23.1219C6.75885 23.1754 6.82676 23.2876 6.78547 23.3694ZM7.59242 24.0894C7.51418 24.1619 7.36123 24.1283 7.25746 24.0136C7.15015 23.8992 7.13005 23.7463 7.20937 23.6727C7.29006 23.6001 7.43838 23.6341 7.54596 23.7485C7.65327 23.8642 7.67419 24.0161 7.59242 24.0894ZM8.14601 25.0107C8.0455 25.0805 7.88114 25.015 7.77954 24.8691C7.67903 24.7232 7.67903 24.5483 7.78172 24.4782C7.88359 24.4081 8.0455 24.4711 8.14846 24.6159C8.2487 24.7643 8.2487 24.9392 8.14601 25.0107ZM9.08226 26.0776C8.99234 26.1768 8.80082 26.1501 8.66065 26.0148C8.51721 25.8825 8.47727 25.6948 8.56747 25.5957C8.65847 25.4962 8.85108 25.5242 8.99234 25.6584C9.13469 25.7905 9.17816 25.9795 9.08226 26.0776ZM10.2923 26.4378C10.2526 26.5663 10.0682 26.6247 9.88234 26.5701C9.69679 26.5138 9.57536 26.3633 9.61285 26.2335C9.65143 26.1042 9.8367 26.0433 10.0239 26.1017C10.2091 26.1577 10.3309 26.3071 10.2923 26.4378ZM11.6693 26.5906C11.6739 26.7259 11.5164 26.838 11.3213 26.8405C11.1252 26.8448 10.9665 26.7354 10.9644 26.6022C10.9644 26.4656 11.1184 26.3545 11.3145 26.3512C11.5096 26.3474 11.6693 26.4561 11.6693 26.5906ZM13.0221 26.5387C13.0455 26.6707 12.9099 26.8063 12.7162 26.8424C12.5258 26.8772 12.3495 26.7957 12.3253 26.6648C12.3017 26.5295 12.4397 26.3939 12.6298 26.3589C12.8238 26.3252 12.9974 26.4045 13.0221 26.5387Z" fill="currentColor"/>
</svg>
