<svg width="39" height="32" viewBox="0 0 39 32" fill="none" xmlns="http://www.w3.org/2000/svg">
<title>LinkedIn Logo</title>
<g clip-path="url(#clip0_22_55)">
<path d="M36.4988 29.9343C36.5802 29.9351 36.6608 29.9193 36.7357 29.888C36.8107 29.8567 36.8783 29.8104 36.9344 29.7521C36.9906 29.6938 37.034 29.6247 37.062 29.5491C37.0901 29.4735 37.1021 29.393 37.0974 29.3126C37.0974 28.8718 36.8288 28.6611 36.2777 28.6611H35.3872V30.9693H35.7221V29.9632H36.1337L36.1431 29.9754L36.7818 30.9693H37.14L36.4528 29.9406L36.4988 29.9343ZM36.1115 29.7031H35.7231V28.9227H36.2153C36.4696 28.9227 36.7595 28.9639 36.7595 29.2935C36.7595 29.6727 36.4662 29.7031 36.1095 29.7031" fill="currentColor"/>
<path d="M27.7619 27.0417H23.0125V19.6773C23.0125 17.9212 22.9809 15.6605 20.5424 15.6605C18.0688 15.6605 17.6903 17.5738 17.6903 19.5494V27.0412H12.9409V11.897H17.5003V13.9666H17.5642C18.0204 13.1941 18.6798 12.5586 19.472 12.1278C20.2641 11.6971 21.1595 11.4871 22.0627 11.5203C26.8763 11.5203 27.7639 14.6553 27.7639 18.7338L27.7619 27.0417ZM7.58211 9.82686C7.03701 9.82695 6.5041 9.667 6.05081 9.36722C5.59751 9.06744 5.24421 8.64129 5.03551 8.14268C4.82682 7.64406 4.77213 7.09537 4.87837 6.56598C4.98462 6.0366 5.24704 5.5503 5.63242 5.16858C6.0178 4.78686 6.50884 4.52686 7.04345 4.42147C7.57807 4.31608 8.13223 4.37002 8.63588 4.57648C9.13953 4.78294 9.57003 5.13264 9.87296 5.58136C10.1759 6.03008 10.3376 6.55767 10.3377 7.09741C10.3378 7.45578 10.2666 7.81066 10.1281 8.14177C9.98966 8.47289 9.78672 8.77376 9.53084 9.02722C9.27496 9.28067 8.97114 9.48174 8.63678 9.61894C8.30242 9.75614 7.94405 9.82679 7.58211 9.82686V9.82686ZM9.95678 27.0417H5.20249V11.897H9.95678V27.0417ZM30.1296 0.00191814H2.81596C2.19602 -0.00500901 1.59863 0.232048 1.15512 0.660996C0.711603 1.08994 0.45825 1.67569 0.450684 2.28952V29.4464C0.457991 30.0605 0.711195 30.6466 1.15469 31.076C1.59819 31.5054 2.19571 31.743 2.81596 31.7364H30.1296C30.7511 31.7441 31.3503 31.5073 31.7955 31.0779C32.2408 30.6485 32.4957 30.0617 32.5043 29.4464V2.28756C32.4954 1.67251 32.2404 1.0861 31.7951 0.657164C31.3498 0.228226 30.7508 -0.0081538 30.1296 -4.20539e-05" fill="currentColor"/>
<path d="M36.152 27.6329C35.5742 27.6384 35.022 27.8703 34.6164 28.2778C34.2107 28.6853 33.9846 29.2352 33.9873 29.8074C33.9901 30.3796 34.2216 30.9273 34.6312 31.331C35.0408 31.7346 35.5951 31.9612 36.173 31.9612C36.7509 31.9612 37.3052 31.7346 37.7148 31.331C38.1244 30.9273 38.3559 30.3796 38.3587 29.8074C38.3615 29.2352 38.1353 28.6853 37.7296 28.2778C37.324 27.8703 36.7718 27.6384 36.194 27.6329H36.152ZM36.152 31.7134C35.773 31.7196 35.4006 31.6145 35.082 31.4112C34.7633 31.2079 34.5127 30.9156 34.3619 30.5713C34.211 30.2269 34.1666 29.8461 34.2344 29.4768C34.3021 29.1075 34.479 28.7664 34.7425 28.4966C35.0061 28.2269 35.3444 28.0405 35.7149 27.9612C36.0854 27.8818 36.4714 27.9131 36.824 28.0509C37.1765 28.1887 37.4799 28.427 37.6957 28.7355C37.9115 29.0441 38.03 29.4091 38.0364 29.7844C38.0364 29.7951 38.0364 29.8054 38.0364 29.8162C38.047 30.3085 37.8597 30.7848 37.5157 31.1404C37.1717 31.496 36.6991 31.7017 36.2019 31.7124H36.1525" fill="currentColor"/>
</g>
<defs>
<clipPath id="clip0_22_55">
<rect width="37.9077" height="32" fill="white" transform="translate(0.451172)"/>
</clipPath>
</defs>
</svg>
