<svg viewBox="0 0 32 32" fill="none" xmlns="http://www.w3.org/2000/svg">
<path d="M13.502 5.414C13.0436 7.37122 12.9813 9.40036 13.3187 11.382C13.6561 13.3637 14.3864 15.2579 15.4667 16.9531C16.5469 18.6484 17.9554 20.1105 19.6091 21.2533C21.2628 22.3962 23.1283 23.1968 25.096 23.608C24.0615 24.6784 22.8225 25.53 21.4526 26.1124C20.0826 26.6947 18.6096 26.9959 17.121 26.998C16.983 26.998 16.843 27.003 16.703 26.998C14.1114 26.9067 11.6336 25.9104 9.70022 24.1822C7.76679 22.454 6.49987 20.1031 6.11956 17.5379C5.73925 14.9727 6.26958 12.3553 7.61842 10.1405C8.96726 7.92564 11.0494 6.2533 13.503 5.414H13.502ZM14.98 3C14.9213 3.0002 14.8628 3.00555 14.805 3.016C11.6216 3.58252 8.76037 5.30669 6.77211 7.85653C4.78385 10.4064 3.80918 13.6016 4.03575 16.8271C4.26232 20.0525 5.67411 23.0801 7.9993 25.327C10.3245 27.5738 13.3987 28.8811 16.63 28.997C16.794 29.003 16.958 28.997 17.12 28.997C19.219 28.9984 21.2874 28.4943 23.1503 27.5274C25.0133 26.5605 26.616 25.1592 27.823 23.442C27.9208 23.294 27.9779 23.1229 27.9885 22.9458C27.9992 22.7687 27.963 22.592 27.8836 22.4333C27.8042 22.2747 27.6845 22.1397 27.5364 22.0421C27.3883 21.9444 27.2171 21.8875 27.04 21.877C25.0423 21.7017 23.1116 21.0693 21.3972 20.0288C19.6828 18.9884 18.2307 17.5676 17.1529 15.8764C16.0752 14.1852 15.4008 12.2688 15.1818 10.2754C14.9628 8.28193 15.2051 6.26484 15.89 4.38C15.9483 4.22913 15.9697 4.06652 15.9523 3.90572C15.935 3.74492 15.8796 3.59059 15.7905 3.45557C15.7015 3.32055 15.5815 3.20877 15.4405 3.12952C15.2995 3.05028 15.1416 3.00587 14.98 3V3Z" fill="#FAFAFA"/>
</svg>
